<?xml version="1.0" encoding="UTF-8"?><svg id="Layer_1" xmlns="http://www.w3.org/2000/svg" width="520" height="520" viewBox="0 0 520 520"><defs><style>.cls-1{fill:#231f20;}</style></defs><path class="cls-1" d="M379.31,305.92c.27.14.48.24,1.11.18.64-.06,1.48-.25,2.39-.37.92-.11,1.9-.27,3.18-.1.62.08,1.41.33,1.99.72.59.38,1.02.82,1.37,1.24.51.63.84,1.15,1.2,1.65.36.51.72,1.02,1.05,1.56,2.34,3.76,4.53,7.76,5.91,12.02.64,1.88,1.17,3.79,1.62,5.7.28,1.22.56,2.45.71,3.7.05.63.09,1.25.12,1.88.01.63-.02,1.26-.08,1.89-.19.8-.18.69-.61.08-.41-.61-1.14-1.72-1.53-3.07-.38-1.19-.54-2.4-.89-3.57-.3-1.18-.64-2.35-1.02-3.5-.75-2.31-1.67-4.54-2.71-6.76-1.24-2.67-3.15-5.13-5-7.59-.51-.67-1.02-1.42-1.43-1.83-.21-.21-.41-.36-.58-.43-.15-.06-.34-.11-.63-.12-.59-.01-1.36.12-2.15.3-.81.19-1.65.37-2.68.49-1.31.16-2.94-.24-3.99-1.15-1.09-.88-1.73-1.99-2.21-3.05-.71-1.62-1.1-3.29-1.31-4.97-.2-1.67-.24-3.27-.42-4.79-.14-1.17-.38-2.34-.81-3.28-.42-.97-1.04-1.85-1.73-2.53-.3-.31-.65-.52-.96-.75-.6-.39-.95-.56-1.2-.83-.25-.25-.39-.63-.54-1.17-.07-.25-.18-.5-.24-.74-.1-.41.05-.77.55-1.06.48-.28,1.33-.36,2.28-.04,1.42.47,2.61,1.4,3.53,2.46.92,1.07,1.6,2.3,2.07,3.62.89,2.68.95,5.13,1.18,7.29.16,1.61.4,2.94.89,4.33.45,1.34,1.18,2.33,1.63,2.52l-.04.09Z"/><path class="cls-1" d="M260.32,192.64c-1.43.04-2.92-.14-4.28-.51-.5-.13-1.01-.23-1.49-.43-.84-.35-1.66-.75-2.41-1.24-.76-.47-1.47-1.02-2.11-1.63-.57-.54-1.15-1.07-1.62-1.68-.62-.77-1.19-1.6-1.5-2.54-.11-.29.04-.31.32-.19.28.13.73.38,1.12.74.66.67,1.41,1.2,2.1,1.77.69.57,1.42,1.09,2.14,1.65.88.66,1.99,1.01,3.06,1.3,1.18.33,2.4.52,3.62.5.76-.01,1.54-.09,2.33-.21,1.19-.18,2.42-.36,3.66-.58.96-.16,1.93-.41,2.98-.45.23,0,.46-.03.7-.01.88.08,1.1.42,1.1,1.04,0,.15,0,.3-.02.44-.08.47-.48.78-.98.87-1.46.15-2.94.4-4.66.71-1.26.25-2.61.44-4.05.51v-.06Z"/><path class="cls-1" d="M261.24,190.97c-1.41-.08-2.81-.2-4.2-.52-.5-.11-1.02-.17-1.51-.32-1.74-.54-3.39-1.31-4.9-2.27-.67-.42-1.34-.86-1.95-1.35-.78-.64-1.49-1.39-1.96-2.3-.15-.28.05-.37.4-.32.35.05.88.18,1.32.47,1.59.99,3.05,1.96,4.74,2.8,1.01.52,2.19.7,3.32.89,1.25.22,2.52.34,3.82.39.8.03,1.6.03,2.4-.03,1.22-.08,2.45-.18,3.65-.44.93-.2,1.81-.57,2.71-.88.2-.07.39-.16.59-.22.76-.18,1.06.03,1.36.66.07.15.15.29.21.44.18.49-.04,1-.55,1.35-1.56.89-3.36,1.27-5.21,1.5-1.38.17-2.79.23-4.21.21v-.06Z"/><path class="cls-1" d="M262.68,170.11c-.18.96-.44,1.9-.83,2.83-.14.33-.24.68-.42,1-.65,1.1-1.49,2.06-2.49,2.81-.46.32-.93.61-1.41.86-.31.16-.66.25-1,.32-.18.02-.38-.06-.56-.1-.19-.06-.34-.02-.51-.03-.21,0-.18-.05-.03-.16.11-.08.21-.17.3-.23.11-.13.2-.41.3-.62.21-.26.42-.44.6-.66.21-.17.41-.35.59-.54.35-.4.81-.69,1.25-1.06.54-.45.81-1.15,1.09-1.79.32-.71.55-1.47.69-2.28.09-.5.15-1.01.17-1.52.04-.78.06-1.58-.07-2.37-.1-.61-.36-1.19-.56-1.78-.05-.13-.09-.26-.12-.39-.08-.5.06-.7.64-.91.13-.05.26-.1.39-.14.44-.13.86.02,1.1.36.74,1.02.91,2.24,1.05,3.5.09.94.05,1.92-.09,2.89h-.06Z"/><path class="cls-1" d="M464.43,294.63l-2.56,24.45c-.31,2.97-.49,5.96-.79,8.93-.99,10.48-2.06,20.96-2.77,31.46-.18,2.33-.3,4.67-.41,7-.11,2.33-.26,4.66-.34,6.98-.12,2.97-.14,5.96-.36,8.94l-.24,4.47-.14,2.23c-.06.74-.25,1.49-.33,2.23-.28,1.85-.16,1.61-.37.03-.08-.79-.48-1.91-.6-3.26-.18-1.35-.35-2.94-.43-4.67-.34-12.22.49-24.4,1.64-36.64.68-7.32,1.19-14.95,1.88-22.43.77-8.23,1.62-16.44,2.46-24.66.52-5.06,1.03-10.11,1.55-15.17.76-7.66,1.53-15.35,2.14-22.96.45-5.92.7-11.73.96-17.59.05-1.29.1-2.55.16-3.85.21-4.82.61-6.33,1.38-7.33.18-.23.36-.53.53-.66.57-.43.94,1.56.98,5.11-.1,10.53-.89,21.59-1.88,32.67-.73,8.23-1.57,16.48-2.39,24.71h-.07Z"/><path class="cls-1" d="M466.76,235.87c.39-1.25.79-2.49,1.23-3.73.16-.45.28-.92.46-1.37.65-1.57,1.42-3.11,2.36-4.54.42-.63.83-1.28,1.29-1.88.29-.39.59-.78.93-1.14.37-.33.81-.58,1.26-.79.28-.13.39.08.39.47-.01.38-.06.97-.29,1.43-1.15,1.31-2.12,2.77-3.06,4.36-.57.95-.88,2.08-1.24,3.17-.4,1.2-.75,2.42-1.08,3.66l-.59,2.29c-.28,1.16-.56,2.33-.72,3.51-.13.91-.1,1.83-.2,2.73-.02.2-.02.4-.05.6-.1.74-.26.96-.72,1.08-.1.03-.21.06-.31.08-.34.04-.59-.3-.68-.87-.1-.84-.22-1.72-.15-2.59.06-.87.17-1.74.31-2.62.21-1.29.49-2.58.81-3.86h.05Z"/><path class="cls-1" d="M465.99,231.87c.37-.63.73-1.27,1.17-1.86.41-.61.85-1.19,1.3-1.76.31-.43.58-.88.94-1.28,1.22-1.42,2.59-2.7,4.02-3.86.63-.53,1.26-1.06,1.89-1.58.4-.34.86-.61,1.31-.89.43-.32,1.06-.3,1.57-.41.34-.05.36.11.26.49-.14.32-.19,1.21-.58,1.57-.36.33-.65.74-1.05.98-.36.31-.73.62-1.1.92-.73.63-1.46,1.27-2.21,1.92-.92.77-1.56,1.86-2.26,2.85-.38.55-.75,1.11-1.13,1.67-.34.58-.7,1.15-1.04,1.74-.41.72-.82,1.45-1.15,2.21-.53,1.14-1.01,2.33-1.29,3.54-.2.95-.17,1.92-.15,2.85l.02.61c0,.75-.22.98-1.03,1.14-.18.04-.37.09-.55.11-.62.08-1.11-.27-1.28-.93-.51-1.97-.12-4.05.48-5.96.47-1.42,1.09-2.79,1.78-4.1l.07.03Z"/><path class="cls-1" d="M466.28,210.88c-.18-.61-.3-1.23-.36-1.85-.03-.22-.11-.43-.12-.66-.03-.8-.02-1.58.08-2.35.04-.34.07-.68.09-1-.02-.43.2-.84.36-1.24.06-.12.14-.1.27.02.13.12.31.33.45.56.17.21.23.4.27.59.05.19.11.38.16.57.04.19.1.37.12.56,0,.19,0,.38-.02.58-.05.48.18.93.31,1.38.13.5.29,1,.44,1.5.1.31.2.62.34.91.2.45.41.9.73,1.28.25.29.63.46.96.65.07.04.16.07.23.11.25.17.15.39-.28.92l-.3.37c-.35.4-.76.62-1.08.55-.88-.26-1.48-.94-1.92-1.68-.34-.55-.58-1.15-.8-1.75l.05-.03Z"/><path class="cls-1" d="M40.72,310.68l-.09,19.53.07,7.12-.17,25.11c.02,3.71.05,7.45.07,11.13.01,4.74.34,9.48-.32,14.23-.18,1.48-.26,1.28-.61.04-.21-.69-.47-1.57-.78-2.57-.28-1.07-.47-2.32-.59-3.68-.25-4.83-.42-9.66-.55-14.5-.03-4.84,0-9.7.1-14.57.12-5.83-.11-11.9-.15-17.86-.03-6.56-.05-13.12-.08-19.68-.02-4.04-.03-8.08-.05-12.11-.05-6.11-.07-12.25-.22-18.32-.1-4.71-.55-9.34-.36-14.12.05-1.05.1-2.09.23-3.15.55-3.94,1.25-5.13,2.32-5.68.25-.13.51-.31.73-.35.77-.13.79,1.47.51,4.15-.2,2-.28,4.03-.28,6.1-.04,2.07-.02,4.17.03,6.32.11,4.3.17,8.73.2,13.13.02,6.55.04,13.14.06,19.71h-.08Z"/><path class="cls-1" d="M42.32,265.19c-.45.39-.82.82-1.13,1.38-.12.2-.17.43-.28.63-.4.74-.67,1.58-.86,2.47-.09.39-.1.8-.09,1.2.07.51-.06,1.04-.19,1.59-.05.17-.19.17-.42.06-.22-.11-.6-.33-.79-.64-.38-.54-.39-1.13-.47-1.72-.03-.3-.03-.6,0-.9.04-.3.12-.6.22-.89.24-.69.28-1.46.54-2.17.28-.78.74-1.51,1.29-2.16.33-.4.71-.75,1.1-1.08.6-.5,1.27-.87,1.96-1.22.53-.27,1.07-.61,1.7-.79.14-.04.27-.09.42-.1.54-.06.71.22.74.82,0,.14.02.28.02.42-.02.46-.23.85-.46,1.03-.69.53-1.25.68-1.89,1.07-.47.27-.94.59-1.34,1.01l-.05-.04Z"/><path class="cls-1" d="M39.06,234.43c.2.68.38,1.36.63,2.02.21.68.46,1.34.74,2,.18.49.48.92.7,1.39.77,1.66,1.64,3.31,2.74,4.8.23.34.5.66.78.96.27.31.52.64.81.93.38.37.75.74,1.06,1.17.36.38.64.86.92,1.36.17.32.08.35-.28.35-.26,0-.53-.01-.77-.02-.33,0-.68-.05-.97-.21-.53-.27-1.03-.58-1.46-.96-.44-.37-.87-.76-1.24-1.21-.72-.9-1.38-1.86-1.91-2.9-.65-1.22-1.48-2.38-2.12-3.64-.68-1.38-1.27-2.82-1.72-4.29l-.4-1.36-.34-1.37c-.34-1.39-.53-2.81-.77-4.2-.07-.54-.18-1.08-.3-1.61-.1-.54-.18-1.08-.27-1.62-.04-.24-.09-.48-.07-.72.04-.91.22-1.19.79-1.36.13-.04.26-.09.39-.11.43-.07.8.3,1,.92.3.91.45,1.83.6,2.76.09.46.17.93.24,1.39l.26,1.4c.12.7.3,1.38.44,2.07.19.68.34,1.38.57,2.05l-.06.02Z"/><path class="cls-1" d="M46.08,260.93c.62.32,1.22.66,1.78,1.07l1.46,1.09c.35.27.73.47,1.07.74,1.2.97,2.39,1.95,3.6,2.88.54.42,1.12.76,1.68,1.14.71.5,1.53.82,2.01,1.71.16.26,0,.38-.36.5-.18.06-.42.13-.69.19-.13.03-.28.07-.41.07-.12-.01-.24-.04-.35-.09-1.6-.71-3.11-1.6-4.49-2.71-.83-.67-1.85-1.11-2.77-1.66-1.02-.59-2.02-1.34-2.93-1.8-.59-.3-1.21-.55-1.85-.72-.97-.24-1.99-.39-2.97-.21-.76.13-1.41.6-2,.98-.13.08-.25.2-.37.28-.25.14-.43.2-.63.13-.11-.05-.22-.12-.34-.23-.13-.12-.28-.27-.42-.42l-.37-.37c-.17-.19-.26-.41-.33-.77-.09-.38,0-.67.21-.93.63-.7,1.45-1.32,2.4-1.62.94-.31,1.96-.42,2.94-.37,1.47.06,2.87.48,4.16,1.04l-.02.07Z"/><path class="cls-1" d="M38.99,256.38c.03.18.07.37.15.54.03.06.09.08.11.15.07.26.17.54.32.75.07.09.16.15.25.22.12.07.25.1.32.35.02.08-.08.38-.22.69-.14.31-.36.66-.5.7-.23.05-.47.07-.69.03-.18-.11-.33-.28-.43-.49-.12-.26-.39-.3-.57-.48-.19-.2-.33-.44-.47-.67-.08-.15-.16-.29-.24-.43-.13-.21-.2-.45-.36-.63-.12-.14-.37-.21-.57-.34-.04-.03-.1-.05-.13-.08-.09-.14.05-.26.66-.54l.42-.19c.48-.2.9-.32,1.08-.33.55-.02.63.12.75.29.07.13.1.29.17.43l-.05.04Z"/><path class="cls-1" d="M40.9,259.11c-.09.24-.19.47-.28.69-.03.08,0,.16-.04.23-.16.27-.31.53-.51.75-.08.1-.11.21-.13.32-.03.14-.02.3-.23.38-.07.03-.37-.08-.69-.21-.31-.13-.65-.28-.68-.35-.1-.24-.19-.44.05-.61.16-.11.05-.25.07-.38.03-.14.06-.29.09-.43.02-.09.04-.18.04-.28,0-.14.03-.29-.05-.41-.05-.1-.24-.14-.37-.2-.03-.01-.07-.02-.08-.04-.03-.07.12-.16.7-.42l.39-.18c.44-.2.83-.32,1.03-.29.31.03.5.13.63.25.14.12.21.27.21.44.02.24-.04.49-.07.73h-.06Z"/><path class="cls-1" d="M87.47,290.05c1.28,2.42,2.61,4.84,3.99,7.21.5.87,1.08,1.69,1.59,2.56,1.8,3.04,3.57,6.12,5.5,9.1.84,1.33,1.79,2.59,2.68,3.88,1.14,1.65,2.28,3.31,3.31,5.05.32.54.1.61-.44.35-.53-.26-1.44-.8-2.25-1.64-2.96-2.93-5.28-6.35-7.47-9.88-1.29-2.12-2.85-4.19-4.22-6.33-1.5-2.35-2.95-4.75-4.37-7.15-.88-1.48-1.73-2.99-2.54-4.52-1.24-2.31-2.34-4.73-3.34-7.17-.77-1.9-1.57-3.77-2.08-5.8-.1-.45-.24-.88-.32-1.34-.28-1.71.04-2.29.81-2.66.18-.09.36-.2.54-.24.62-.16,1.16.48,1.48,1.56.85,3.24,1.96,6.51,3.45,9.78,1.1,2.42,2.38,4.83,3.73,7.22l-.06.04Z"/><path class="cls-1" d="M84.57,282.02c.19,1.17.43,2.34.73,3.49.12.42.28.82.4,1.24.37,1.5.82,2.99,1.39,4.43.24.64.58,1.25.86,1.87.38.79.78,1.58,1.14,2.39.11.26.02.27-.2.13-.22-.14-.62-.4-.95-.8-1.22-1.4-2.14-3.01-2.8-4.74-.38-1.04-.95-2.05-1.33-3.12-.42-1.17-.76-2.38-1.06-3.58-.19-.74-.35-1.49-.51-2.24-.24-1.13-.42-2.28-.58-3.45-.12-.91-.31-1.84-.25-2.84,0-.22.01-.44.06-.66.17-.83.5-1.02,1.11-.9.14.03.29.05.42.09.45.16.69.57.69,1.01,0,1.29.12,2.63.37,4.17.21,1.13.33,2.35.58,3.51h-.05Z"/><path class="cls-1" d="M375.87,287.03c.68,1.32.85,2.63.99,3.81.05.43.15.84.19,1.26.12,1.48.22,2.96.38,4.43.09.65.14,1.31.22,1.96.1.83.19,1.67.22,2.51,0,.26-.09.25-.26.06-.16-.19-.45-.55-.64-1-.32-.8-.67-1.6-.96-2.42-.23-.82-.33-1.68-.42-2.53-.09-1.03-.43-2.05-.62-3.08-.21-1.13-.39-2.21-.79-3.13-.06-.14-.13-.28-.2-.41l-.19-.33c-.1-.15-.21-.25-.51-.35-.82-.28-1.91-.43-2.92-.38-.8.04-1.58.3-2.29.56-.15.06-.31.11-.46.15-.57.14-.69-.13-1.08-.73l-.29-.4c-.15-.23-.21-.47-.14-.73.09-.28.27-.54.54-.74.8-.53,1.62-.71,2.46-.79.84-.08,1.68-.04,2.55.07.65.08,1.29.2,2.01.44.17.05.37.13.57.22.1.05.19.08.3.14.12.07.23.13.34.21.43.27.88.82,1.07,1.18l-.05.03Z"/><path class="cls-1" d="M375.35,284.52c.16.36.29.71.42,1.06.04.13.11.24.14.38.09.48.16.95.23,1.4.03.2.09.38.14.56.07.23.14.47.1.73-.01.08-.14.11-.3.09-.16-.02-.37-.07-.46-.17-.3-.38-.61-.71-.74-1.14-.07-.26-.32-.44-.49-.64-.19-.22-.31-.5-.49-.74-.1-.15-.21-.3-.33-.44-.18-.21-.35-.44-.6-.58-.2-.1-.47-.09-.68-.13-.05,0-.11,0-.15-.02-.16-.06-.11-.23.2-.79l.21-.38c.25-.43.53-.72.75-.76.32-.06.6-.02.86.07.23.13.42.31.58.5.25.29.45.64.64.97l-.04.03Z"/><path class="cls-1" d="M376.44,282.97c-.02.17-.04.34-.04.5,0,.06.04.1.03.16-.02.21-.04.43-.03.63,0,.09.04.16.08.24.05.09.15.17.08.31-.04.09-.91.39-1.01.3-.15-.17-.25-.36-.22-.62.02-.15-.1-.25-.15-.37-.05-.14-.09-.28-.13-.43-.02-.09-.04-.18-.07-.26-.05-.13-.07-.27-.16-.38-.06-.09-.2-.14-.3-.21-.02-.02-.06-.02-.07-.04-.05-.07.04-.14.44-.34l.27-.13c.3-.14.57-.23.7-.21.35.05.59.15.59.37.03.15.02.31.03.47l-.04.02Z"/><path class="cls-1" d="M463.26,242.53c-.74,3.1-1.62,6.17-2.61,9.19-.34,1.11-.66,2.22-1.05,3.32-1.38,3.85-2.93,7.63-4.68,11.32-.73,1.65-1.55,3.27-2.31,4.9-.56,1-1.13,2.01-1.69,3.02-.58.99-1.32,1.9-1.97,2.85-.42.58-.38.49-.18-.09.23-.57.45-1.72.94-2.94l1.32-3.23,1.42-3.17c.93-2.12,1.85-4.25,2.74-6.41,1.1-2.57,1.86-5.39,2.67-8.13.45-1.51.84-3.03,1.26-4.55.36-1.53.78-3.05,1.12-4.59l.65-2.84.56-2.85c.54-2.89,1.03-5.8,1.33-8.71.21-2.26.26-4.49.32-6.73,0-.49.02-.98.03-1.48.05-.92.11-1.53.29-1.94.22-.41.48-.65.83-.82.16-.08.31-.19.46-.24.25-.08.45.08.66.43.2.35.44.9.45,1.58.26,4.09-.03,8.39-.7,12.66-.21,1.59-.53,3.17-.8,4.75-.33,1.58-.63,3.16-.99,4.72h-.07Z"/><path class="cls-1" d="M395.08,322.44l-1.44-4.67c-.18-.57-.42-1.12-.59-1.7-.57-2.03-1.18-3.98-1.96-5.87-.36-.83-.81-1.63-1.31-2.36-.61-.97-1.3-1.9-2.07-2.79-.24-.28-.15-.32.19-.23.33.09.96.28,1.55.71.52.38,1,.81,1.47,1.27.44.47.79,1.01,1.14,1.54.67,1.08,1.25,2.22,1.61,3.42.45,1.43,1.06,2.85,1.55,4.23l1.64,4.64.97,2.89c.49,1.46.92,2.95,1.37,4.42.35,1.14.81,2.25,1.1,3.44.06.26.14.52.17.79.14,1.01-.07,1.38-.63,1.59-.13.05-.26.11-.4.14-.45.09-.84-.29-1.04-.91-.17-.48-.34-.95-.51-1.42l-.44-1.46c-.31-1.01-.62-2.02-.93-3.04-.48-1.52-.97-3.07-1.5-4.62l.05-.02Z"/><path class="cls-1" d="M393.16,306.4c.12.52.23,1.04.32,1.56.04.18.12.35.14.54.07.67.13,1.32.12,1.97,0,.28.04.56.07.84.04.35.09.71-.01,1.07-.03.11-.22.11-.43.04-.21-.07-.47-.21-.55-.39-.25-.65-.54-1.24-.58-1.91-.01-.41-.25-.77-.4-1.15-.16-.42-.32-.83-.5-1.24-.11-.25-.22-.51-.36-.75-.2-.36-.4-.74-.69-1.04-.24-.23-.56-.37-.86-.52-.06-.04-.14-.05-.2-.09-.2-.16-.12-.34.36-.87l.33-.37c.38-.4.79-.63,1.06-.57.8.17,1.36.69,1.66,1.36.25.48.42,1,.59,1.51l-.05.03Z"/><path class="cls-1" d="M158.41,289.84c.19.77.35,1.54.43,2.32.04.28.13.55.14.84.05,1,.03,2-.08,2.98-.04.43-.06.86-.07,1.29.02.55-.15,1.1-.51,1.59-.12.15-.21.11-.4-.05-.18-.17-.59-.47-.69-.76l-.16-.39c-.05-.13-.03-.25-.05-.38-.01-.25-.03-.5-.04-.75,0-.25-.02-.5-.02-.75.02-.25.04-.51.07-.76.09-.62-.14-1.24-.25-1.85-.13-.67-.27-1.35-.46-2.02-.11-.41-.24-.82-.4-1.22-.24-.6-.49-1.21-.86-1.74-.3-.41-.72-.71-1.11-1.02-.08-.07-.19-.12-.27-.19-.29-.27-.24-.48.23-1,.11-.12.21-.24.32-.36.38-.39.83-.54,1.16-.37.98.49,1.65,1.38,2.15,2.34.38.71.65,1.47.9,2.23l-.06.02Z"/><path class="cls-1" d="M191.23,246.6c-.67.15-1.34.2-2,.2-.24.01-.48.05-.72.03-.85-.08-1.67-.26-2.44-.54-.35-.09-.68-.27-1.01-.39-.21-.1-.41-.2-.61-.31-.19-.13-.37-.28-.53-.45-.1-.11.01-.24.21-.37.2-.12.5-.26.73-.23.42.05.81.08,1.2.11.37.07.73.22,1.12.34.46.17.97.07,1.45.04.54-.03,1.07-.1,1.6-.22.33-.07.65-.16.97-.28.48-.18.95-.4,1.34-.72.14-.13.27-.29.38-.45.1-.17.19-.35.31-.49.05-.06.09-.14.14-.21.2-.23.37-.21.82.05l.31.17c.33.21.5.52.43.84-.17.99-.93,1.67-1.75,2.13-.6.36-1.27.59-1.93.77l-.02-.05Z"/><path class="cls-1" d="M278.72,306.41s-11.46-21.35-12.22-27.66c-.76-6.3-4.57-15.74-4.57-15.74l-50.98-43.15s-10.1,11.65-11.53,14.16c-1.43,2.51-12.37,24.08-12.37,24.08l13.7,9.24s47.05.72,49.82,2.1c5.09,2.55-1.64,1.79-2.75,2.07s-66.56,1.11-66.56,1.11l-20.43,3.11-2.05,21.43s42.1,9.41,60.86,10.27c18.76.86,59.07-1.04,59.07-1.04Z"/><path class="cls-1" d="M374.34,277.13c.17-1.22.35-2.47.41-3.72.03-.46-.02-.91,0-1.37.07-1.62,0-3.24-.11-4.87-.05-.72-.18-1.44-.32-2.15-.17-.91-.28-1.84-.39-2.78-.03-.29.05-.28.24-.08.18.2.56.57.84,1.06.23.44.47.88.66,1.34.15.47.29.93.41,1.41.23.95.45,1.92.44,2.91.02,1.18.24,2.39.28,3.6.04,1.32,0,2.65-.1,3.97-.07.81-.17,1.63-.33,2.47-.24,1.26-.76,2.55-1.59,3.62-.62.82-1.29,1.59-2.03,2.24-.16.15-.32.29-.5.41-.66.43-.96.4-1.42-.05-.11-.1-.22-.2-.31-.31-.31-.38-.25-.88.12-1.31,1.1-1.28,2.26-2.12,2.8-3.23.44-.83.72-1.93.85-3.14h.06Z"/><path class="cls-1" d="M369.23,282.71c.52-.48.99-1,1.47-1.52.48-.52.94-1.05,1.35-1.63.31-.41.53-.88.81-1.31.95-1.55,1.73-3.24,2.19-5.04.21-.8.28-1.63.3-2.45,0-.53.02-1.05,0-1.58l-.03-.8c0-.13-.01-.27-.02-.4,0-.13.03-.28.04-.42.06-.36.03-.31.23-.06.09.13.31.29.45.52.15.23.29.51.39.83.16.57.31,1.15.38,1.73.05.59.06,1.18.02,1.77-.07,1.18-.3,2.36-.7,3.47-.52,1.31-1,2.7-1.71,3.96-.79,1.37-1.74,2.66-2.84,3.76-.67.69-1.38,1.34-2.11,1.95-1.1.93-2.29,1.76-3.46,2.57-.9.63-1.76,1.31-2.68,1.92-.2.14-.39.28-.6.4-.78.45-1.11.43-1.53.02-.09-.09-.2-.18-.28-.29-.26-.35-.1-.83.4-1.23,1.48-1.21,3.1-2.26,4.63-3.44,1.14-.87,2.25-1.77,3.24-2.79l.04.04Z"/><path class="cls-1" d="M414.76,298.62c-.41.83-1.02,1.61-1.79,2.16-.27.2-.54.4-.84.54-1.05.5-2.12.62-3.15.71-.46.05-.9.1-1.35.14-.57.05-1.15.05-1.73-.02-.18-.02-.16-.12-.03-.27.14-.14.39-.37.71-.48.28-.09.56-.19.83-.27.27-.06.55-.12.83-.18.52-.11,1.06-.22,1.62-.33.64-.12,1.25-.42,1.75-.76.57-.36,1.02-.83,1.36-1.44.2-.37.36-.78.46-1.21.16-.65.23-1.34.15-2.03-.05-.54-.23-1.05-.38-1.58-.03-.12-.08-.23-.11-.35-.1-.44.02-.61.45-.79.1-.04.2-.09.3-.12.34-.11.67.02.86.34.49.93.86,2.04.76,3.26-.04.9-.27,1.83-.65,2.69h-.04Z"/><path class="cls-1" d="M397.17,306.02c-.63.19-1.17.52-1.45.93-.11.15-.12.33-.17.51-.23.62-.03,1.7.27,2.82.14.51.22,1.05.28,1.56.04.33.07.67.06,1.01-.03.34-.13.67-.25.99-.09.2-.24.15-.45-.02-.2-.18-.55-.47-.72-.79-.19-.57-.39-1.1-.62-1.6-.17-.5-.32-1.11-.45-1.81-.07-.42-.18-.86-.26-1.36-.08-.49-.06-1.06.11-1.58.38-1.18,1.32-1.95,2.22-2.38.57-.27,1.15-.45,1.74-.56.91-.17,1.75-.12,2.56-.17.63-.04,1.23-.2,1.79-.27.12-.02.24-.06.37-.07.46-.02.63.14.83.52.05.09.1.17.13.26.12.28-.02.62-.39.9-.56.35-1.19.57-1.79.69-.6.08-1.17.1-1.71.14-.81.05-1.44.1-2.06.34l-.02-.05Z"/><path class="cls-1" d="M400.94,306c-1.02.15-1.93.32-2.58.71-.24.14-.39.35-.58.55-.67.72-1.18,1.85-1.31,3.13-.05.57-.03,1.16.01,1.75.02.37.09.79.09,1.12,0,.35-.02.64.08.91.06.16,0,.34-.34.38-.34.06-1.03-.28-1.3-.83-.13-.23-.21-.46-.26-.66l-.16-.59c-.1-.4-.19-.81-.26-1.24-.05-.86,0-1.79.3-2.7.33-1.07.77-2.24,1.68-3.13,1.03-.98,2.32-1.32,3.42-1.53l1.99-.33c.99-.18,1.99-.32,2.96-.56.75-.19,1.46-.48,2.2-.72.16-.05.31-.12.48-.16.61-.17.85.01,1.09.47.06.11.12.21.16.32.14.36-.03.75-.44,1.04-1.25.7-2.62,1.19-4.04,1.49-1.05.24-2.12.43-3.17.64v-.06Z"/><path class="cls-1" d="M347.66,223.71s1.63,3.95,9.07,5.09c6.48.99,15.47-3.15,19.19-1.8,3.72,1.35,4.13,2.26,4.13,2.26l3.6-6.56v-4.55s-9.31,4.78-9.59,5.5-11,2.33-14.77,1.42c-3.77-.91-10.19-4.05-10.19-4.05l-1.44,2.67Z"/><path class="cls-1" d="M342.81,239.54s-12.23-1.6-19.52-9.52c-7.29-7.91-5.55-22.55-5.55-22.55l8.52-16.29,14.28-15.41s4.45-6.09,5.12-13.36c.67-7.27,3.47-16.09,5.31-17.78s13.3-9.89,17.36-10.48c4.06-.59,17.74.44,20.88,3.88s6.51,12.92,6.51,12.92c0,0,10.24-9,18.25-6,8.01,2.99,18.17,9.16,21.27,17.46s6.47,17.76,4.11,22.9c-2.36,5.15-10.28,17.16-11.48,20.32s-2.8,12-2.54,14.23,5.97,14.16,5.97,14.16c0,0,2.16,10.13.28,12.09-1.88,1.97-8.58,8.39-9.78,8.88-1.19.48-10.5,0-10.5,0,0,0-4.1-5.54-6.03-9.61-1.93-4.07-4.65-9.65-7.24-9.65-2.59,0-15.68,4.24-17.48,0-1.8-4.24.61-11.48.61-11.48l14.56-18.24s5.42.63,7.94-2.14,2.41-6.31,2.72-7.77-4.26-5.62-5.65-5.95-5.2-4.83-5.2-4.83l2.78-11.04,2.41-3.86s-8.26,2.92-11.42,1.08-5.65-7.25-5.65-7.25l2-8.45s-5.34,8.51-13.65,10.77-12.86,2.27-12.86,2.27c0,0-4.28,1.15-6.48,3.23s-7.26,12.38-10.3,19.12c-3.04,6.74-3.06,13.78-2.36,16.29s6.65,13.31,6.65,13.31l-4.3,13.14.44,5.61Z"/><path class="cls-1" d="M233.26,162.67c1-1.74,2.19-3.42,3.77-4.69l.57-.5c.2-.16.41-.29.62-.43l1.25-.84c.44-.24.9-.45,1.35-.67.45-.22.9-.45,1.38-.58.7-.21,1.35-.51,2.09-.67.37-.08.73-.17,1.1-.23l1.12-.1c2.63-.1,5.22.56,7.47,1.73,2.22,1.25,4.15,2.92,5.62,4.92,1.31,1.78,2.31,3.76,2.93,5.87.32,1.38.39,2.94-.05,4.33-.21.69-.51,1.33-.84,1.93-.14.31-.37.58-.6.83-.22.27-.47.51-.66.78-.48.68-.39.6-.19-.08.1-.34.13-.88.08-1.54.02-.63.14-1.3.21-1.97.17-1.18,0-2.21-.41-3.27-.36-1.07-.84-2.22-1.4-3.25-.6-1.03-1.31-2-2.12-2.89-.83-.86-1.73-1.68-2.74-2.36-1.21-.8-2.59-1.44-4.04-1.76-1.45-.33-2.96-.36-4.4-.14-.79.08-1.59.42-2.39.64-.41.11-.76.34-1.15.5-.37.19-.78.31-1.12.57l-1.06.68c-.36.21-.65.53-.98.79-.68.51-1.19,1.19-1.76,1.82-1.27,1.65-2.2,3.6-2.65,5.67-.4,1.56-.37,3.19-.27,4.8.27,1.58.62,3.18,1.41,4.58.14.28.27.56.43.82l.54.75.54.74c.21.23.43.44.64.66.82.91,1.78,1.66,2.8,2.28.45.28.91.49,1.38.72.87.41,1.46.63,1.85.88.39.25.6.52.76.9.07.17.18.35.21.52.15.53-.87.96-2.58.51-2.49-.68-4.82-2.18-6.57-4.21-1.8-1.99-3.12-4.49-3.75-7.17-.51-1.99-.5-4.06-.3-6.09.33-2.01.89-3.99,1.84-5.82l.06.03Z"/><path class="cls-1" d="M258.97,157.44l-.52-8.01c-.06-.98-.2-1.95-.23-2.94-.04-1.48-.05-2.96.03-4.48.03-.75.11-1.53.23-2.32.08-.41.16-.81.31-1.25.04-.2.22-.49.32-.74.11-.26.32-.47.48-.69l.49-.37.54-.28c.36-.17.63-.23.94-.32,1.72-.37,3.29-.41,4.87-.35,1,.05,2.01.09,3,.29.49.11.98.24,1.46.4.24.06.47.2.7.34.23.12.36.62.58.72.56.25.48.24-.05.23-.24-.09-.78.58-1.23.72-.47.21-.98.3-1.51.33-.75.05-1.47-.03-2.21-.02-.73,0-1.46,0-2.16.06-.7.03-1.41.04-2.03.13-.3.04-.62.09-.83.16-.05.01-.13.03-.16.04h-.04s-.05,0-.08,0c-.04,0-.07.02-.09.04-.01.01-.03.02-.05.04l-.07.19c-.06.12-.1.28-.14.45-.05.16-.09.33-.13.52-.45,2.13-.15,4.64-.04,7.03.13,2.65.31,5.33.5,8l.37,4.95c.21,2.5.36,5.02.6,7.5.17,1.93.54,3.82.65,5.76.03.43.07.85.08,1.28,0,1.61-.24,2.13-1,2.43-.17.07-.34.16-.5.2-.54.11-1.01-.54-1.19-1.66-.26-1.66-.6-3.36-.77-5.1-.17-1.75-.34-3.52-.51-5.29-.23-2.66-.47-5.33-.7-8h.08Z"/><path class="cls-1" d="M273.7,178.07c.03-.06.12-.17.09-.26-.06-.02-.14-.04-.25-.05-.03,0-.05,0-.1,0l-.51.05-1.03.1-2.06.2c-1,.1-2,.28-3,.35-3.56.21-7.13.34-10.7.35-1.59,0-3.18.02-4.76-.02-1.01-.03-2.04-.06-3.06-.24-.51-.08-1.02-.2-1.52-.34-.25-.09-.5-.16-.75-.26-.24-.12-.48-.25-.7-.41-.54-.43-.37-.44.19-.43.59-.03,1.53-.18,2.62-.18,1.95,0,3.94-.08,5.95-.24,1-.08,2.01-.15,3.02-.23,1.01-.05,2.03-.09,3.05-.14,2.45-.06,4.96-.59,7.45-.84l4.12-.45,2.5-.27c.53-.05,1.08-.12,1.5-.02.44.1.83.05,1.05.44.45.81.1,2.19-.25,3.41l-.23.74-.2.62-.42,1.23c-.86,2.47-1.86,4.89-2.82,7.29-.75,1.87-1.38,3.75-2.22,5.6-.19.41-.36.82-.58,1.22-.83,1.49-1.43,1.85-2.23,1.64-.19-.05-.38-.08-.54-.17-.51-.3-.47-1.02-.03-2.02,1.31-3.04,2.65-6.46,3.96-9.86.48-1.27.95-2.55,1.4-3.83l.65-1.92.29-.95c.03-.1.03-.07.04-.1l.08-.02Z"/><path class="cls-1" d="M262.74,225.12l-.25-1.46c-.07-.49-.14-.99-.23-1.48-.06-.36-.21-.69-.27-1.06-.19-1.29-.42-2.58-.59-3.89-.08-.58-.23-1.14-.37-1.7-.16-.72-.48-1.43-.25-2.24.1-.26.35-.27.78-.16.48.1,1.04.33,1.19.7.55,1.33,1.22,2.64,1.36,4.15.1.9.54,1.74.81,2.62.28.98.57,1.95.76,2.97l.38,1.87c.2.94.32,1.91.55,2.84.17.73.5,1.43.7,2.19.04.17.13.32.14.5.03.64-.29.86-1.03,1-.17.03-.34.07-.51.09-.56.06-1.07-.17-1.4-.55-.74-1.12-.97-2.28-1.25-3.54-.2-.92-.36-1.88-.59-2.83l.08-.02Z"/><path class="cls-1" d="M456.57,267.25c-1.09,2.65-2.21,5.29-3.37,7.91l-1.82,3.89-.91,1.94-.98,1.91c-.98,1.85-1.78,3.78-2.84,5.59-.91,1.6-1.87,3.18-2.81,4.76l-3.03,4.62c-.97,1.56-2.12,3.01-3.19,4.51l-1.62,2.23-1.73,2.15c-1.04,1.26-1.99,2.59-3.08,3.81-1.07,1.23-2.15,2.46-3.21,3.68-1.4,1.54-2.92,2.98-4.4,4.45-.71.77-1.58,1.37-2.42,1.99l-1.27.92c-.43.3-.9.55-1.34.83-1.14.65-.99.55-.37-.41.59-1,1.6-2.86,3.22-4.53,5.73-5.99,10.93-12.42,15.73-19.31,1.43-2.06,2.75-4.26,4.06-6.48.61-1.14,1.21-2.28,1.82-3.42.61-1.14,1.27-2.25,1.83-3.41,1.26-2.53,2.62-5.02,3.76-7.62l1.78-3.86,1.64-3.93c1.39-3.2,2.54-6.51,3.77-9.78.82-2.52,1.7-5.02,2.49-7.55.73-2.55,1.53-5.07,2.15-7.63.48-1.99.91-3.97,1.31-5.94.35-1.99.7-3.97,1.05-5.96.17-.87.25-1.74.45-2.62.33-1.63.64-2.68,1.01-3.4.35-.72.69-1.11,1.13-1.39.2-.13.4-.31.58-.38.57-.22.83,1.21.78,3.7-.5,7.35-2.38,14.88-4.52,22.33-1.57,5.55-3.54,11-5.57,16.41l-.08-.02Z"/><path class="cls-1" d="M435.06,251.32c2.57-2.13,5.07-4.39,7.51-6.71.89-.85,1.69-1.78,2.57-2.65,1.55-1.53,3.06-3.09,4.57-4.66,1.49-1.59,2.97-3.2,4.43-4.81,1.29-1.45,2.51-2.96,3.68-4.49l2.33-2.88.59-.71.66-.67c.44-.44.88-.89,1.32-1.34.56-.55.55-.43.36.24-.11.42-.24.9-.37,1.4-.09.31-.17.62-.26.94-.05.17-.11.32-.15.51-.08.15-.17.31-.26.47-.64,1.11-1.3,2.21-1.98,3.29-.7,1.07-1.48,2.08-2.24,3.11-1.56,2.02-3.17,4.02-4.99,5.84-2.16,2.2-4.15,4.7-6.33,6.98-2.39,2.5-4.89,4.91-7.5,7.2-1.6,1.41-3.25,2.78-4.93,4.1-2.55,2.01-5.25,3.85-8.01,5.54-2.16,1.3-4.3,2.62-6.75,3.55-.53.21-1.08.39-1.64.55-2.13.53-2.93.12-3.38-.7-.11-.2-.24-.39-.29-.58-.18-.68.6-1.23,1.85-1.69,3.76-1.2,7.54-3.3,11.22-5.78,2.73-1.84,5.39-3.9,7.94-6.09l.06.06Z"/><path class="cls-1" d="M393.95,385.86c-.3.19-.6.37-.93.55-.23.13-.91.48-1.43.65-1.11.42-2.21.5-3.19.31-.29-.07-.56-.19-.84-.3-.25-.15-.5-.3-.71-.52-.44-.42-.72-.99-.8-1.55-.2-1.12.32-2.49,1.02-3.76l.42-.71.34-.53c.23-.35.46-.68.69-1.02l1.41-1.95c1.88-2.55,3.78-5.02,5.46-7.59,1.47-2.24,2.73-4.61,3.53-6.96.66-2.05.93-4.42,1.03-6.75.1-2.35.03-4.74-.1-7.14-.14-2.4-.32-4.82-.56-7.2-.24-2.39-.57-4.78-.91-7.17-.64-4.24-1.51-8.47-2.45-12.63-.58-2.68-1.17-5.37-1.75-8.05-.27-1.35-.59-2.69-.8-4.05-.2-1.37-.38-2.74-.51-4.11-.16-1.72-.14-1.49.43-.13.28.68.77,1.62,1.3,2.78.26.58.58,1.2.84,1.87.24.68.48,1.4.69,2.17.76,2.7,1.53,5.4,2.26,8.13.7,2.73,1.31,5.48,1.88,8.26.56,2.78,1.06,5.57,1.47,8.39.39,2.82.62,5.69.79,8.53.19,3.4.45,6.89.36,10.46-.05,1.79-.17,3.6-.5,5.41-.32,1.84-.99,3.67-1.79,5.28-1.77,3.58-4.04,6.71-6.29,9.8-1.13,1.54-2.27,3.06-3.31,4.59-.5.72-1.11,1.71-1.19,1.89-.09.19-.19.38-.24.59-.05.2-.05.46.13.58.14.1.31.13.48.14.24.01.48-.04.72-.12.11-.04.24-.09.34-.14.13-.06.4-.21.6-.31.86-.49,1.71-1.1,2.57-1.73.86-.63,1.73-1.29,2.69-1.9.97-.58,1.99-1.26,3.49-1.33.62-.01,1.3.19,1.82.56.53.38.85.85,1.13,1.31.56,1.09.62,2.05.71,2.99.11,1.87,0,3.66-.11,5.44-.11,1.78-.24,3.54-.32,5.29-.04.88-.06,1.74-.05,2.61v.64s.03.53.03.53c.02.25.03.5.07.74.05.39.13.78.27,1.13.14.35.37.67.72.78.13.09.26-.08.33-.18.08-.12.14-.25.2-.38.11-.26.2-.52.27-.78.07-.26.14-.51.19-.75l.2-.92c.41-1.91.71-3.85.93-5.79.13-1.16.19-2.29.25-3.46.11-2.16.11-3.55.18-4.53.08-.98.23-1.56.55-2.1.14-.24.26-.56.41-.73.25-.29.63-.02,1.01.79.38.81.7,2.14.81,3.85.18,3.11-.05,6.24-.52,9.37-.12.78-.25,1.57-.41,2.35l-.25,1.18-.21.86-.31,1.07c-.42,1.41-.95,2.81-1.6,3.62-.16.2-.32.39-.49.51-.16.16-.33.22-.5.31-.34.11-.69.21-1.26.35-.62-.3-1.17-.45-1.61-.83-.44-.37-.84-.81-1.16-1.44-.67-1.21-.98-3.21-1.05-5.09-.07-2.1.05-4.09.17-6.07.12-1.91.27-3.8.34-5.63.03-.91.04-1.82-.02-2.64-.03-.41-.07-.82-.14-1.12-.03-.17-.08-.28-.11-.38-.02-.03-.03-.06-.04-.1l-.1-.15c-.14-.19-.24-.26-.23-.24,0,.01-.02-.01-.23.03-.41.08-1.15.47-1.84.95-1.43.97-2.88,2.26-4.64,3.41l-.05-.06Z"/><path class="cls-1" d="M407.89,401.39c-.03.21-.05.19-.05.31,0,.11.09.12.18.12.04,0,.09-.01.14-.03-.04.04.2-.1.36-.24.34-.25.66-.62.96-.99.44-.57.75-1.26,1.1-1.94,1.21-2.43,1.98-5.2,2.42-8,.18-1.24.3-2.51.29-3.75,0-.8-.06-1.59-.15-2.37-.03-.79-.11-1.55-.19-2.32-.06-.48.01-.51.48-.24.48.26,1.25.99,1.59,1.99.74,3.56.44,7.08-.6,10.44-.63,2-1.13,4.13-2.19,6.09-.59,1.07-1.32,2.12-2.38,2.96-.14.12-.25.19-.45.31-.21.13-.4.26-.61.32l-.61.23c-.2.07-.41.08-.61.12l-.31.05-.28-.04c-.18-.05-.39,0-.54-.12-.37-.17-.58-.51-.71-.87-.33-.9-.21-2.19-.16-2.76.07-.73.17-1.43.28-2.13.33-2.12.79-4.21,1.12-6.28.27-1.61.37-3.22.52-4.8.03-.35.05-.69.08-1.03.04-.32.07-.58.11-.8.06-.22.15-.38.23-.52.16-.27.34-.44.56-.58.1-.07.2-.16.3-.21.29-.19.73.41.97,1.48.23,3.07-.37,6.07-.84,9.07-.36,2.21-.81,4.47-.94,6.53h-.06Z"/><path class="cls-1" d="M413.43,399.72c.06.06.18.07.32,0-.04.05.17-.15.27-.29.13-.14.25-.29.36-.47.24-.33.45-.7.64-1.09.29-.56.44-1.21.67-1.83.76-2.22,1.19-4.66,1.3-7.1.06-1.09-.05-2.18-.15-3.24-.08-.68-.19-1.36-.32-2.03-.05-.34-.08-.68-.11-1.02-.05-.34-.07-.69-.08-1.04,0-.45.17-.48.62-.24.49.22,1.22.77,1.6,1.59,1.01,2.96,1.01,6.07.5,9.08-.33,1.79-.5,3.69-1.09,5.52-.34,1-.77,1.99-1.38,2.93-.14.24-.33.46-.5.69-.09.12-.17.2-.3.35-.14.15-.28.31-.41.43-.58.48-1.2.93-1.85,1.14-.7.28-1.4.28-2.07.25-.34-.06-.66-.08-1-.16-.33-.08-.75-.1-.83-.31l.11-.57.18-.87.24-.92c.23-.64.48-1.28.72-1.9.35-.89.67-1.71.95-2.58.44-1.33.67-2.7.87-4.01.04-.29.06-.58.09-.86.08-.53.12-.84.31-1.07.14-.22.33-.35.62-.49.13-.06.26-.14.39-.19.21-.08.41,0,.6.22.19.23.38.62.44,1.1.09,1.42-.11,2.77-.39,4.09-.3,1.32-.62,2.63-1.01,3.91l-.14.48-.07.24s0,0-.02.01c0,0,0,0,0,0-.01,0-.05.04-.06.07-.04.05,0,.06.02.08l-.04.1Z"/><path class="cls-1" d="M413.74,361.96l-.03-13.42c-.01-1.63-.12-3.25-.13-4.88-.06-5.74-.19-11.48-.59-17.2-.08-1.27-.2-2.54-.36-3.8-.16-1.26-.29-2.53-.51-3.76-.49-3.2-1.25-6.32-1.67-9.54.04-1.06.04-.94.66-.23.32.35.7.88,1.17,1.54.45.66.78,1.49,1.03,2.41.22.82.47,1.64.65,2.46l.47,2.49c.33,1.66.53,3.32.76,4.99.43,3.34.69,6.69.81,10.06.11,4.03.51,8.2.66,12.31.19,4.52.2,9.04.23,13.55.02,2.78.02,5.56.1,8.31.04,1.04.04,2.08.22,2.96.19.9.57,1.84.98,2.77.84,1.86,1.89,3.68,2.85,5.59.37.75.73,1.51,1.04,2.31.31.8.54,1.74.67,2.55.28,1.67.4,3.34.34,5.03-.02.74-.05,1.48-.18,2.23-.52,2.77-1.2,3.57-2.13,3.81-.22.05-.45.14-.64.14-.66-.04-.65-1.14-.47-2.92.22-2.66.27-5.44-.18-8.1-.06-.34-.12-.66-.19-.9-.05-.26-.18-.56-.27-.84-.23-.59-.5-1.21-.82-1.85-.62-1.27-1.36-2.58-2.07-3.96-.53-1.03-1.06-2.1-1.52-3.29-.22-.6-.44-1.23-.58-1.94-.18-.75-.16-1.34-.23-2.01-.1-2.35-.12-4.6-.15-6.86h.08Z"/><path class="cls-1" d="M172.64,255.83c-1.45,1.58-2.94,3.12-4.42,4.67-.54.57-1.01,1.19-1.56,1.74-1.93,1.96-3.84,3.95-5.8,5.88-.87.86-1.65,1.8-2.49,2.67-.53.56-1.06,1.14-1.6,1.69l-.83.82c-.27.28-.63.48-.94.73-.41.28-.38.22-.26-.21.06-.22.14-.53.22-.92.11-.37.29-.76.53-1.14,1.68-2.74,3.61-5.24,5.86-7.51,1.37-1.34,2.53-2.95,3.8-4.44,1.4-1.62,2.8-3.25,4.22-4.86l2.6-2.99c1.29-1.53,2.61-3.04,3.8-4.63.92-1.24,1.67-2.57,2.47-3.87.18-.29.33-.59.52-.87.7-1.04,1.14-1.21,2.02-.87.2.08.41.13.59.23.62.32.78,1.09.37,1.94-1.21,2.53-2.97,4.83-4.81,7.07-1.37,1.67-2.82,3.28-4.24,4.91l-.06-.05Z"/><path class="cls-1" d="M191.15,250.28c-.31-.05-.54.02-.82-.02-.27,0-.57-.15-.85-.28-.29-.14-.57-.3-.84-.47-.26-.15-.6-.37-.7-.45-.59-.41-1.17-.83-1.73-1.26-.41-.31-.86-.55-1.26-.87-1.4-1.14-2.8-2.28-4.17-3.44-.6-.52-1.25-.99-1.89-1.44-.85-.54-1.62-1.23-2.26-2.07-.19-.28-.07-.38.32-.47.39-.1,1.06-.2,1.64-.01,1.06.28,1.89.88,2.79,1.39.44.27.87.55,1.3.84.41.32.8.67,1.18,1.02.92.85,2.07,1.45,3.11,2.16l1.71,1.18.84.58.4.3c.15.1.41.32.52.09.14-.14.27-.31.4-.48.69-.98,1.48-2.1,2.1-3.21.49-.88.82-1.83,1.23-2.75.09-.2.17-.41.28-.6.43-.7.77-.83,1.49-.58.16.06.33.11.48.18.5.26.74.77.62,1.38-.16.93-.51,1.79-.92,2.62-.41.84-.89,1.65-1.39,2.46-.37.6-.76,1.19-1.17,1.78-.12.18-.64.92-1.01,1.42-.45.46-.89.87-1.39,1.07l-.02-.07Z"/><path class="cls-1" d="M173.49,229.39c-3.95,3.58-7.82,7.3-11.55,11.18-1.36,1.41-2.64,2.9-3.99,4.33-4.74,5.03-9.39,10.19-13.88,15.46-1.99,2.34-3.94,4.75-5.81,7.16-1.21,1.54-2.37,3.13-3.61,4.65l-1.87,2.28-.95,1.12c-.33.36-.73.68-1.12,1-1.06.74-.9.65-.66-.47.13-.55.21-1.42.59-2.24.35-.85.83-1.8,1.47-2.74,4.61-6.61,9.67-12.88,15.19-18.84,3.3-3.57,6.47-7.5,9.84-11.16,3.7-4.02,7.5-7.96,11.47-11.74,2.45-2.32,4.97-4.57,7.59-6.72,1.98-1.63,4.03-3.2,6.21-4.6,2.19-1.38,4.47-2.74,7.15-3.36,4.14-.98,8.4-.08,12.06,1.67.81.39,1.6.78,2.36,1.26,2.81,1.83,3.41,2.84,3.35,3.91-.02.25,0,.53-.07.72-.26.67-1.47.12-3.34-1.04-2.78-1.72-5.88-3.12-8.99-3.56-1.55-.22-3.09-.18-4.55.17-1.44.33-2.89,1.03-4.37,1.87-4.37,2.6-8.5,6.14-12.44,9.75l-.06-.06Z"/><path class="cls-1" d="M314.22,252.83c-4.03.91-8.07,1.79-12.12,2.59-1.48.31-2.94.67-4.42.95-5.24.95-10.49,1.81-15.77,2.47-2.34.31-4.69.63-7.01.94-1.5.16-2.99.4-4.49.51-1.51.06-3.02.05-4.53.02-.94-.03-.83-.31-.07-.75.76-.42,2.16-1.1,3.84-1.46l1.12-.25,1.12-.17,2.25-.33,4.49-.72c1.5-.21,3-.51,4.5-.73,1.51-.21,3.02-.43,4.54-.65,3.64-.48,7.34-1.47,11.01-2.28l12.1-2.77c2.48-.58,4.97-1.17,7.44-1.79,3.75-.94,7.53-1.84,11.22-2.87,2.88-.8,5.65-1.78,8.47-2.66.62-.2,1.22-.42,1.86-.59,2.35-.65,3.16-.6,3.89.2.17.18.37.35.49.55.4.66-.42,1.48-2.09,2.11-4.95,1.86-10.29,3.33-15.69,4.75-4.01,1.05-8.06,2.03-12.11,3.01l-.03-.08Z"/><path class="cls-1" d="M413.06,294c-.34-5.68-.86-11.39-1.52-17.07-.24-2.07-.59-4.13-.84-6.2-.96-7.27-1.97-14.61-4.01-21.56-.79-3.06-2.5-5.78-4.39-8.35-.61-.82-1.26-1.61-1.94-2.36-.36-.4-.63-.68-.98-.92-.35-.24-.73-.44-1.15-.57-1.7-.57-3.8-.24-5.93-.54-1.34-.3-1.14-.25-.07-.74,1.08-.46,2.92-1.67,5.82-1.29.64.09,1.29.29,1.93.56.63.31,1.25.69,1.75,1.18.9.85,1.59,1.64,2.32,2.51,1.42,1.72,2.72,3.52,3.84,5.52.28.5.54,1.02.79,1.56.13.27.24.55.35.83l.29.79c.4,1.05.7,2.12.97,3.19.55,2.13.99,4.27,1.36,6.42.87,5.14,1.93,10.42,2.65,15.66.78,5.77,1.35,11.56,1.8,17.36.25,3.59.52,7.11.5,10.81,0,.49-.05.99-.13,1.46-.07.22-.11.45-.22.66l-.07.16c-.06.03-.09.08-.14.11-.09.08-.18.15-.27.22-.36.29-.85.4-1.32.52-.24.06-.48.11-.72.14-.18.03-.36.06-.53.07-1.4.17-2.75.25-4.11.33-2.71.16-5.4.28-8.06.47-4.14.31-8.18.87-12.14,1.64-.87.17-1.71.39-2.57.59-3.19.75-4.09.98-5.11.37-.23-.13-.51-.22-.68-.36-.59-.38.46-1.77,2.97-2.61,3.67-1.28,7.5-1.91,11.37-2.37,3.87-.45,7.78-.67,11.66-.9,1.44-.08,2.87-.16,4.27-.28.7-.06,1.39-.13,2.04-.21l.23-.04.12-.02h.02s.02,0,.02,0c0,0,.01,0,.01-.02,0-.03,0,.11.01-.37,0-.68-.02-1.38-.04-2.09-.06-1.41-.14-2.84-.24-4.28h.08Z"/><path class="cls-1" d="M427.71,248.06c.88-.97,1.59-2.04,2.21-3.15.57-1.12.95-2.28,1.11-3.44.32-2.37-.47-4.79-1.75-7.21-1.26-2.43-2.98-4.84-4.27-7.72-1.33-3.1-1.55-6.28-1.47-9.34.09-2.24.36-4.45.86-6.63.49-2.18,1.24-4.34,2.24-6.35,1.78-3.59,4.31-6.51,6.29-9.5,2-2.99,3.55-6.22,4.34-9.69,1.61-6.94.55-14.47-2.52-21.02-2.7-5.83-6.97-11.05-12.31-14.48-3.43-2.17-7.36-3.58-11.35-3.7-1.99-.06-4,.07-5.94.63l-.73.18c-.25.06-.47.18-.72.24l-1.46.44-1.42.59c-.48.19-.95.4-1.39.67-2.27,1.22-2.13.93-.51-.71.39-.44.92-.88,1.56-1.39.32-.26.65-.54,1.02-.83.39-.26.8-.52,1.23-.8.42-.32.91-.53,1.43-.73.52-.21,1.06-.42,1.62-.62,1.16-.29,2.41-.62,3.74-.67,2.35-.15,4.74.11,6.99.74,2.26.61,4.44,1.5,6.42,2.67,1.03.54,1.95,1.23,2.91,1.87.9.71,1.83,1.39,2.65,2.18,1.72,1.51,3.23,3.23,4.63,5.03,2.74,3.64,4.87,7.71,6.22,12.06,1.4,4.33,1.94,8.95,1.6,13.52-.25,2.73-.82,5.46-1.72,8.09-.91,2.64-2.22,5.12-3.71,7.45-1.49,2.32-3.14,4.44-4.48,6.62-1.36,2.17-2.39,4.46-3.08,6.89-.75,2.67-1.16,5.48-1.18,8.26,0,2.79.35,5.49,1.6,7.87,1.23,2.49,2.94,4.9,4.28,7.68.67,1.39,1.23,2.88,1.52,4.48.28,1.59.28,3.27-.11,4.86-.44,1.96-1.34,3.73-2.43,5.31-1.1,1.57-2.39,2.99-3.85,4.2-2.91,2.4-6.33,4.3-10.23,4.84-1.48.15-3.03.13-4.53-.35-1.51-.46-2.85-1.4-3.86-2.52-2.04-2.26-3.1-4.92-4.23-7.38-1.11-2.47-2.22-4.91-3.92-6.72-.84-.9-1.83-1.6-2.94-2.03-1.09-.43-2.38-.59-3.52-.55-1.85.15-3.85.88-5.94,1.37-1.05.25-2.16.46-3.32.5-1.16.05-2.4-.09-3.57-.55l-.86-.4c-.3-.19-.63-.4-.87-.64-.52-.48-.9-1.01-1.2-1.55-.61-1.08-.97-2.2-1.2-3.33-.23-1.13-.34-2.28-.24-3.51.12-1.28.48-2.36.92-3.46.81-1.88,1.9-3.5,3.13-5,1.14-1.39,2.17-2.41,3.06-3.21.88-.81,1.61-1.43,2.21-1.93,1.22-.99,1.99-1.48,2.76-1.79.34-.15.75-.39,1.01-.44.43-.1.34.5-.27,1.66-.61,1.16-1.82,2.8-3.41,4.73-1.15,1.45-2.36,2.81-3.36,4.24-.99,1.42-1.83,2.9-2.19,4.39-.07.36-.19.77-.2,1.06-.02.34-.03.71,0,1.09.05.77.19,1.57.41,2.3.22.73.54,1.41.87,1.83.16.18.32.33.39.36.22.09.51.26.8.31,1.14.35,2.74.15,4.48-.27l2.78-.72c.98-.25,2.04-.51,3.27-.62.62-.05,1.32-.05,1.89,0,.59.03,1.2.14,1.8.27,1.2.29,2.41.74,3.48,1.42,1.07.67,2,1.51,2.78,2.4.77.9,1.4,1.84,1.96,2.79,1.61,2.81,2.6,5.62,3.84,8.03.61,1.19,1.29,2.26,2.05,3.08.76.82,1.61,1.31,2.6,1.59.98.28,2.18.25,3.38.03,1.2-.21,2.43-.61,3.6-1.18.6-.25,1.16-.61,1.74-.92.54-.37,1.12-.7,1.63-1.12,1.08-.78,2.03-1.7,2.92-2.67l.07.04Z"/><path class="cls-1" d="M345.1,230.54c-.53,1.37-.91,2.81-1.09,4.27-.07.53,0,1.07-.04,1.59-.08,1.86.11,3.78.86,5.53.34.77.77,1.51,1.32,2.15.7.83,1.5,1.52,2.07,2.63.19.34.04.48-.42.59-.23.05-.56.11-.94.15-.19.01-.41.04-.61.01-.19-.03-.36-.11-.52-.21l-.87-.54c-.28-.19-.49-.46-.74-.7-.5-.47-.88-1.04-1.29-1.59-.73-1.17-1.16-2.5-1.36-3.84-.22-1.59-.58-3.19-.51-4.8.08-1.75.43-3.46.94-5.09.33-1.01.69-1.95,1.15-2.95.73-1.47,1.7-2.75,2.72-3.95.78-.94,1.52-1.91,2.45-2.76.2-.19.39-.39.62-.55.84-.62,1.27-.57,1.81,0,.12.13.26.26.36.4.34.48.24,1.1-.19,1.57-1.28,1.41-2.6,2.8-3.72,4.36-.41.58-.79,1.17-1.11,1.77-.16.3-.3.6-.43.92l-.39,1.04-.07-.02Z"/><path class="cls-1" d="M398.74,186.86c.62.61,1.29.95,2.48,1.19.59.13,1.31.22,2.16.46.84.22,1.88.71,2.63,1.48.59.61.84,1.01,1.2,1.47.3.5.61.99.82,1.55.82,1.91,1.02,4.21.41,6.21-.59,2.02-1.89,3.65-3.38,4.84-1.32,1.07-2.82,1.87-4.4,2.38-1.02.32-2.09.54-3.18.52-1.09-.04-2.19-.32-3.13-.89-.55-.44-.29-.65.36-.91.65-.25,1.56-.59,2.47-.72,3.28-.19,6.61-2.3,7.99-5.1.41-.85.54-1.83.34-2.78-.19-.95-.64-1.87-1.21-2.74-.3-.47-.69-1.06-.88-1.23-.24-.24-.58-.42-1.11-.57-1.05-.29-2.69-.4-4.21-1.15-.46-.23-.9-.51-1.31-.82l-.57-.5c-.19-.2-.38-.44-.56-.66-.61-.9-.98-1.82-1.19-2.73-.68-2.77-.38-5.57.45-8.16.65-2.01,1.62-3.97,3.13-5.56.31-.37.64-.7,1.03-1,.36-.27.65-.5.93-.64.29-.12.53-.2.75-.22.44-.05.78.1,1.13.43.16.15.35.29.47.46.42.58.14,1.42-.63,2.08-1.08,1.1-1.98,2.25-2.65,3.54-.67,1.28-1.11,2.7-1.28,4.18-.14,1.09-.1,2.22.08,3.27.16,1.02.6,2.05.89,2.27l-.06.07Z"/><path class="cls-1" d="M342.66,209.46c.86,2.73,2.22,5.28,4.11,7.35.48.51,1.01.97,1.51,1.46.55.43,1.13.83,1.69,1.25l1.91,1.12c.64.37,1.32.65,1.97.99,1.96.88,4,1.54,6.09,1.92.46.12.92.19,1.39.24.47.06.93.13,1.4.18.94.03,1.88.13,2.82.06,1.89-.03,3.78-.33,5.63-.79,3.71-.93,7.25-2.65,10.46-4.85,2.85-1.96,5.44-4.36,7.73-6.93,2.94-3.35,5.28-7.09,7.53-10.95.61-1.26.45-1.15.38.09-.07.6-.08,1.52-.29,2.59-.12.52-.19,1.14-.4,1.72-.21.58-.47,1.19-.79,1.78-1.1,2.14-2.53,4.07-4.01,5.94-1.51,1.85-3.14,3.62-4.95,5.19-3.61,3.15-7.8,5.77-12.44,7.31-2.76.92-5.7,1.58-8.7,1.76-3,.19-6.06-.12-8.94-.93-3.18-.89-6.14-2.3-8.88-4.12-2.8-1.88-5.02-4.52-6.55-7.44-1-1.78-1.61-3.72-2.16-5.64-.44-1.95-.8-3.93-.88-5.91-.35-6.01.83-12.08,3.29-17.5,1.9-4.2,4.34-8.08,7.4-11.5.67-.75,1.34-1.49,2.09-2.18,1.37-1.31,2.43-1.99,3.21-2.4.79-.4,1.34-.49,1.88-.41.24.04.53.04.71.12.6.28-.39,1.45-2.23,3.28-2.75,2.7-5.3,5.71-7.39,9.05-2.1,3.34-3.73,7-4.73,10.8-1.44,5.67-1.57,11.84.22,17.34l-.07.03Z"/><path class="cls-1" d="M329.61,184.61c3.24-3.13,6.45-6.2,9.18-9.59.68-.85,1.33-1.71,1.95-2.6.3-.45.61-.89.89-1.35l.42-.68.35-.64c.9-1.74,1.3-3.72,1.46-5.86.26-3.1-.04-6.61,1.04-10.15,1.84-5.85,5.34-11.14,10.1-15.02,2.43-1.86,5.12-3.37,7.95-4.45,2.84-1.08,5.83-1.68,8.82-1.95,2.66-.22,5.34-.2,8.06.26,2.63.52,5.26,1.31,7.63,2.68,1.52.87,2.97,1.93,4.18,3.23,1.23,1.28,2.31,2.74,3.01,4.36.4.79.65,1.63.94,2.46.17.86.4,1.69.48,2.55.25,1.7.29,3.4.09,5.08-.18,1.04-.28,1.48-.34,1.45-.07-.03-.13-.53-.4-1.38-.27-.85-.73-2.03-1.3-3.37-.28-.67-.64-1.37-.99-2.09-.21-.35-.38-.72-.6-1.08-.16-.37-.38-.73-.55-1.11-.15-.34-.36-.65-.54-.97-.18-.32-.39-.62-.59-.92l-.59-.9-.67-.84c-.96-1.06-2-2.04-3.25-2.78-1.23-.76-2.56-1.39-3.98-1.88l-1.07-.36c-.36-.1-.74-.19-1.11-.28-.75-.21-1.47-.33-2.2-.45-6.06-.7-12.64.39-18.12,3.45-3.31,1.81-6.18,4.56-8.29,7.85-.3.39-.54.82-.76,1.26l-.7,1.3c-.51.84-.84,1.79-1.22,2.7l-.56,1.38c-.19.46-.29.89-.43,1.35-.22.91-.39,1.85-.49,2.82-.23,2.14-.21,4.42-.46,6.79-.13,1.19-.34,2.39-.68,3.59-.36,1.19-.85,2.35-1.48,3.43-2.41,4.07-5.51,7.57-8.73,10.83-1.98,2.01-4.01,3.94-5.99,5.89-1.95,1.9-3.67,4.02-5.2,6.27-2.29,3.43-4.14,7.19-5.24,11.14-.54,1.98-.87,4-.93,6.03-.01,1.01.02,2.04.09,3.06.13,1.01.19,2.03.43,3.02,1.18,6.23,4.68,11.69,9.34,15.73.5.47,1.04.87,1.58,1.28.53.42,1.07.82,1.65,1.19,4.25,2.81,5.7,3.56,6.37,4.84.16.27.41.55.5.75.14.33-.32.37-1.35.27-1.05-.07-2.53-.6-4.36-1.47-5.34-2.73-10.23-7.08-13.43-12.69-1.6-2.8-2.76-5.89-3.39-9.09l-.24-1.2-.15-1.22c-.1-.81-.2-1.62-.2-2.44-.08-1.61-.04-3.32.19-4.95.66-4.89,2.49-9.42,4.88-13.55,1.2-2.07,2.57-4.03,4.08-5.88.75-.93,1.55-1.82,2.39-2.68.84-.87,1.63-1.63,2.45-2.44l.06.05Z"/><path class="cls-1" d="M217.34,222.51c3.74,2.63,7.21,5.46,10.68,8.31,3.46,2.86,6.85,5.77,10.22,8.7,2.45,2.15,4.95,4.25,7.36,6.43,4.25,3.86,8.46,7.76,12.65,11.68l3.13,2.95,1.56,1.48.92.87.31.29c.05.05.11.09.15.15l.05.21.18.83c.6,2.84,1.24,5.58,1.94,8.36,1.23,4.91,2.71,9.79,4.33,14.53,1.04,3.05,2.22,6.04,3.49,8.97.33.72.62,1.47.93,2.21l1,2.16c.33.73.67,1.43.99,2.16.17.36.31.74.47,1.11.17.36.37.69.56,1.04.93,1.77.81,1.61-.62.53-.75-.52-1.75-1.34-2.91-2.43-.34-.25-.54-.59-.8-.92-.24-.34-.49-.69-.75-1.04-.25-.36-.51-.74-.76-1.14-.23-.4-.45-.81-.67-1.24-2.92-6.15-5.06-12.51-6.86-18.96-.9-3.22-1.72-6.47-2.47-9.73l-.55-2.45-.5-2.38v-.11s-.08-.09-.08-.09l-.84-.82-1.79-1.74c-5.72-5.56-12.03-10.96-18.14-16.35-6.74-5.9-13.46-11.85-20.48-17.37-2.16-1.68-4.35-3.34-6.61-4.81-1.11-.71-2.32-1.46-3.37-1.82-.21-.09-.35-.09-.54-.12-.18.01-.33.11-.48.2-.05.04-.15.1-.27.21-.11.09-.22.19-.33.3-.22.21-.44.44-.66.69-1.31,1.48-2.5,3.19-3.65,4.91-1.15,1.73-2.24,3.5-3.31,5.29-2.13,3.58-4.15,7.23-6.07,10.9-1.49,2.86-2.89,5.72-4.24,8.6l-1,2.16-.49,1.08-.44,1.02c-.06.16-.12.32-.17.48.02.17.22.25.33.36l.7.48.97.64c1.16.75,2.35,1.44,3.55,2.19,4.46,2.77,5.77,3.85,6.31,5.1.12.28.31.61.34.84.1.77-1.95,0-5.29-1.89-2.48-1.43-4.98-2.83-7.53-4.48l-.48-.33c-.06-.04-.19-.14-.33-.25l-.39-.31c-.53-.41-.96-.91-1.18-1.48-.2-.28-.11-.58-.1-.89,0-.31.14-.63.25-.95l.36-.89.22-.52c.59-1.38,1.21-2.74,1.84-4.1,2.51-5.43,5.29-10.82,8.23-16.16,2.21-3.96,4.48-7.88,7.21-11.69.7-.95,1.42-1.9,2.32-2.85.22-.24.47-.47.74-.72.15-.13.25-.22.46-.38.24-.19.46-.32.7-.46.48-.27,1-.46,1.54-.49.53-.02,1.09.09,1.62.19.84.29,1.42.53,1.98.84.59.28,1.09.59,1.61.9,1.03.62,2,1.26,2.95,1.92l-.04.08Z"/><path class="cls-1" d="M139.2,286.97l-8.39-.37c-1.02-.06-2.04-.04-3.07-.11-3.6-.26-7.19-.68-10.77-1.16-1.59-.2-3.18-.4-4.76-.6-1.01-.14-2.03-.28-3.03-.49-1-.24-1.99-.51-2.96-.84-.58-.3-.48-.38.11-.6.59-.21,1.63-.43,2.78-.36.51.04,1.03.04,1.54.07.51.02,1.02.11,1.52.16,1.01.14,2.03.2,3.05.32,2.04.21,4.08.43,6.14.64,1.23.14,2.49.21,3.77.22,1.27.03,2.55.06,3.82.08,2.79.1,5.59.15,8.39.19l5.18.04c2.61,0,5.24.03,7.84-.05,2.02-.06,4-.3,6.02-.43.44-.03.88-.09,1.32-.1,1.66,0,2.19.22,2.5,1.1.07.2.17.4.21.6.13.67-.56,1.2-1.75,1.35-3.53.45-7.26.5-11.03.51-2.8,0-5.62-.05-8.44-.1v-.07Z"/><path class="cls-1" d="M272.11,199.25c-.06,1.09-1.04,1.91-2.17,2.5-.13.07-.29.16-.4.2l-.26.11-.52.2c-.34.13-.68.25-1.02.36-.49.17-.96.38-1.46.51-1.74.48-3.47.85-5.18,1.29-.76.19-1.52.39-2.25.63-.94.3-1.88.57-2.88.68-.3.05-.32,0-.18-.31.07-.15.19-.36.34-.61.14-.26.35-.51.61-.66,1.81-1.21,3.78-1.72,5.8-2.12,1.21-.23,2.37-.73,3.53-1.14.64-.22,1.26-.46,1.87-.71.73-.33.81-.33,1.13-.54.16-.11.35-.3.28-.51-.06-.2-.2-.36-.39-.47-.35-.29-1.89-.47-3.08-.42-.97.03-1.93.24-2.9.38-.21.03-.42.09-.64.09-.81,0-1.08-.15-1.27-.72-.05-.13-.1-.25-.13-.37-.09-.4.22-.82.8-1.03.86-.36,1.76-.48,2.68-.61.93-.11,1.88-.16,2.91-.13.38.01.77.05,1.19.11l.34.06c.15.02.33.07.48.12.32.1.66.18.93.35,1.19.55,1.88,1.62,1.91,2.75h-.06Z"/><path class="cls-1" d="M267.31,205.23c.68-.26,1.34-.54,1.93-.86.28-.16.57-.33.78-.5.09-.06.15-.1.2-.19.03-.07.02-.14-.01-.2-.03-.06-.09-.1-.14-.13-.05-.04-.1-.06-.17-.08-.02-.01-.02,0-.05-.01-.05-.01-.09-.02-.15-.03-.1-.01-.2-.03-.31-.04-.43-.05-.9-.05-1.37-.03-.95.05-1.92.19-2.88.37-.85.17-1.7.41-2.53.66-.53.16-1.06.35-1.6.5-.54.14-1.09.26-1.65.37-.35.06-.34-.07-.12-.33.23-.25.65-.68,1.23-.99,2.1-.96,4.29-1.77,6.66-2.14.71-.1,1.44-.22,2.24-.27.2,0,.4-.02.62,0,.27,0,.59.05.87.12.57.15,1.09.45,1.36.93l.14.23c.23.54.23,1.16-.02,1.69-.12.27-.28.52-.48.75-.19.24-.42.44-.58.56-.69.54-1.39.91-2.11,1.25-.91.42-1.83.77-2.74,1.09-1.39.49-2.81.88-4.19,1.32-1.07.34-2.09.79-3.15,1.17-.23.08-.46.19-.69.26-.22.06-.41.11-.57.13-.17,0-.32-.09-.44-.15-.25-.13-.41-.29-.55-.5-.07-.1-.14-.19-.19-.28-.15-.28.14-.7.68-1.26,1.8-.83,3.76-1.39,5.7-1.99,1.44-.45,2.89-.89,4.24-1.45l.02.05Z"/><path class="cls-1" d="M266.79,210.19c.54-.28,1.06-.58,1.51-.91l.17-.12c.05-.04.11-.09.1-.08.03,0,.06-.03.09-.05.06-.05.12-.11.16-.18.08-.12-.03-.23-.13-.27-.08-.05-.18-.08-.3-.1-.02,0-.03-.01-.05,0h-.14s-.3-.03-.3-.03c-.2-.01-.4-.02-.61-.02-.82,0-1.66.05-2.5.13-.74.08-1.48.22-2.21.36l-1.41.3c-.48.07-.96.1-1.45.12-.31,0-.3-.14-.09-.38.21-.23.59-.64,1.1-.89,1.87-.64,3.78-1.2,5.82-1.36.67-.06,1.33-.12,2-.18.52-.02,1.02.03,1.48.14.45.13.8.34,1.06.68.3.39.29.91.19,1.36-.09.47-.35.92-.67,1.34-.17.2-.34.41-.53.59-.14.14-.28.25-.42.37-.29.23-.58.44-.87.64-.73.48-1.47.88-2.23,1.26-1.14.57-2.32,1.03-3.47,1.53-.89.39-1.73.88-2.63,1.28-.2.09-.39.2-.59.27-.79.19-1.11.06-1.4-.48-.07-.12-.14-.24-.19-.37-.16-.42.06-.86.52-1.19,1.4-.92,3.01-1.48,4.58-2.17,1.17-.5,2.33-1.01,3.4-1.61l.03.05Z"/><path class="cls-1" d="M248.16,187.7c-.41-.73-.82-1.45-1.25-2.18-.16-.26-.37-.49-.53-.76-.55-.95-1.01-1.97-1.48-2.97-.21-.44-.46-.87-.72-1.28-.35-.52-.62-1.1-.62-1.79.02-.23.22-.29.59-.29.39,0,.92.05,1.17.29.51.4.74.95,1.08,1.44.31.51.59,1.04.84,1.62.3.68.81,1.27,1.23,1.9l1.35,2.15.83,1.34c.43.67.81,1.38,1.27,2.04.36.51.81.95,1.19,1.46.09.11.19.21.26.33.26.45.19.67-.36,1.05-.12.08-.23.17-.35.24-.37.23-.92.27-1.19.02-.88-.7-1.5-1.55-2.07-2.48-.43-.7-.86-1.4-1.29-2.1l.05-.04Z"/><path class="cls-1" d="M247.86,173.67l-1.58-2.22c-.19-.27-.41-.52-.6-.79-.66-.96-1.32-1.93-1.97-2.89-.27-.44-.58-.86-.87-1.28-.38-.54-.77-1.07-1.13-1.62-.11-.17-.06-.18.11-.1.17.09.47.26.76.51,1,.91,2.2,1.66,2.88,2.85.45.67,1.06,1.26,1.59,1.89.59.69,1.13,1.42,1.69,2.14l1.03,1.32c.53.66,1.04,1.34,1.6,1.97.44.49.94.89,1.42,1.33.11.1.22.18.32.28.37.38.39.59.09,1-.07.09-.13.19-.2.28-.24.28-.63.33-.96.1-.98-.68-1.77-1.61-2.55-2.56-.57-.71-1.11-1.45-1.67-2.18l.03-.03Z"/><path class="cls-1" d="M248.91,169.24c.35-.53.69-1.07,1.01-1.61.13-.19.21-.41.34-.6.49-.67.91-1.38,1.37-2.07.2-.31.37-.63.53-.96.19-.42.41-.83.65-1.23.08-.13.09-.1.1.03,0,.13.06.38.05.66-.03.49-.08.97-.12,1.46-.04.49-.13.97-.37,1.38-.26.51-.35,1.11-.54,1.67-.2.61-.52,1.18-.79,1.76-.17.36-.35.71-.52,1.07-.25.54-.54,1.07-.75,1.63-.16.43-.18.92-.27,1.38-.02.1-.01.21-.05.31-.1.37-.35.39-.98.18-.14-.05-.29-.09-.42-.14-.45-.17-.82-.51-.85-.82-.06-.91.22-1.7.61-2.46.29-.56.63-1.1.94-1.65l.05.02Z"/><path class="cls-1" d="M251.42,171.46c.52-.01,1.05-.04,1.56-.1.19-.02.36-.11.55-.13.67-.07,1.36-.12,2.04-.21.3-.04.58-.16.85-.27.18-.07.33-.19.53-.22.2-.02.41-.01.64.04.16.07.22.24.26.56.03.32.04.8-.11,1.04-.06.12-.14.19-.23.23l-.27.16c-.18.1-.36.19-.55.28-.38.16-.78.28-1.2.31-.52.01-.97.28-1.46.4-.54.13-1.09.23-1.63.31-.34.05-.67.1-1.01.16-.51.09-1.02.12-1.51.27-.38.11-.73.38-1.09.58-.08.04-.16.11-.24.14-.31.12-.45-.1-.62-.83l-.11-.5c-.11-.57-.05-1.07.14-1.3.58-.58,1.23-.72,1.91-.83.5-.08,1.02-.1,1.53-.17l.02.06Z"/><path class="cls-1" d="M245.32,173.99c-.58-.06-1.17-.13-1.75-.19-.21-.02-.42.01-.64-.01-.75-.09-1.51-.17-2.27-.19-.34-.02-.67,0-1,.04-.42.05-.84.12-1.28.04-.14-.03-.15-.26-.08-.53.08-.26.25-.57.49-.66.85-.28,1.73-.5,2.63-.39.54.05,1.08-.1,1.63-.13.6-.04,1.2-.05,1.8-.02.37.01.74.03,1.11.04.56.01,1.12.06,1.67.02.43-.03.85-.19,1.28-.29.09-.02.19-.07.28-.08.35.02.46.19.52.74.01.13.03.25.04.38.02.42-.13.77-.38.94-.75.44-1.52.41-2.3.42-.58,0-1.16-.06-1.75-.09v-.05Z"/><path class="cls-1" d="M173.43,376.08c8.68,4.53,17.74,8.38,27.12,11.27,2.31.82,4.69,1.42,7.06,2.06,2.37.63,4.73,1.33,7.14,1.78,2.4.5,4.8,1.03,7.21,1.5l7.29,1.12c.89.12,1.77.29,2.66.38l2.68.25,5.36.48c1.78.19,3.59.23,5.39.33l5.39.28c12.69.53,25.41.18,38.04-1.17,6.32-.61,12.59-1.67,18.83-2.81,6.21-1.3,12.4-2.73,18.47-4.59,10.78-3.25,21.29-7.65,31.07-13.01,6.29-3.44,12.3-7.41,17.98-11.76,2.84-2.18,5.69-4.36,8.37-6.73,2.67-2.38,5.37-4.75,7.71-7.43,1.46-1.67,2.04-2.41,2.18-2.26.12.14-.25,1.2-1.22,2.9-.96,1.7-2.45,4.05-4.48,6.73-2.07,2.65-4.76,5.54-7.96,8.36-2.86,2.46-5.94,4.66-9.04,6.78l-2.35,1.57-2.39,1.5c-1.58,1.02-3.22,1.95-4.85,2.89-6.53,3.74-13.35,6.96-20.36,9.68-7,2.73-14.19,4.98-21.47,6.82-3.64.96-7.32,1.69-11,2.45-3.71.64-7.4,1.32-11.14,1.77-8.92,1.18-18.05,2.03-27.26,2.37-9.21.31-18.48.23-27.64-.34-10.09-.76-20.16-2.06-30.03-4.36-9.85-2.34-19.52-5.46-28.85-9.38-11.47-4.87-22.38-11.02-32.56-18.13-7.72-5.39-15.05-11.36-21.91-17.79-6.85-6.45-13.26-13.32-19.25-20.46-9.31-11.11-17.64-22.68-25.04-34.97-.82-1.35-1.63-2.69-2.41-4.04-.8-1.35-1.58-2.71-2.33-4.11-2.82-5.19-4.5-8.7-5.51-11.24-.97-2.56-1.32-4.13-1.44-5.47-.05-.61-.19-1.39-.15-1.78.07-.66.76.02,2,1.79,1.23,1.77,3.03,4.6,5.07,8.35,3.09,5.53,6.35,11.05,9.76,16.55,3.43,5.49,7.05,10.92,10.87,16.26,7.63,10.69,16.17,20.93,25.52,30.39,13.92,14.01,29.9,26.13,47.49,35.14l-.03.11Z"/><path class="cls-1" d="M456.82,323.73l2.68-31.91c.29-3.88.59-7.76.88-11.64,1.17-13.67,2.31-27.33,3.3-41.01.48-6.06.8-12.17,1.06-18.19.18-3.87.26-7.75.36-11.61.11-3.86.19-7.75,0-11.51-.11-1.15-.16-1.61.02-1.66.16-.03.58.44,1.02,1.44.91,1.97,1.83,5.82,1.99,10.33.24,8-.05,15.94-.47,23.88-.38,7.94-1.13,15.87-1.92,23.83-.96,9.51-1.55,19.45-2.3,29.19-.85,10.71-1.7,21.43-2.54,32.14-.49,6.59-.98,13.19-1.47,19.78-.68,9.99-1.37,20.02-1.75,29.95-.29,7.72-.28,15.29-.13,22.89.05,1.67.1,3.31.16,4.99.19,6.24.14,8.18-.78,9.61-.21.32-.4.75-.62.95-.72.7-1.71-1.84-2.1-6.5-.57-6.89-.63-13.96-.52-21.1.12-7.14.44-14.37.84-21.6.59-10.74,1.4-21.51,2.19-32.26h.09Z"/><path class="cls-1" d="M478.68,331.51c.28-8.92.54-17.84.68-26.77.02-3.26.03-6.52.05-9.78l.8-34.49c.1-5.1.18-10.23.23-15.3.08-3.25.16-6.51.24-9.77.14-3.26.26-6.52.77-9.75.25-1.01.37-1.44.43-1.41.07.03.1.53.33,1.4.23.87.44,2.09.71,3.57.22,1.48.32,3.2.33,5.07l.07,9.95c-.01,3.32-.03,6.63-.04,9.95-.04,6.64-.11,13.3-.26,19.99-.21,8,.1,16.33.02,24.53-.06,9.01-.19,18.02-.42,27.04l-.24,8.32-.31,8.32c-.13,4.2-.41,8.41-.6,12.61-.25,4.2-.49,8.39-.74,12.55-.23,3.24-.4,6.45-.56,9.65-.19,3.2-.42,6.39-.65,9.6-.09,1.41-.17,2.8-.34,4.21-.58,5.26-1.04,6.9-2.18,7.89-.26.23-.53.53-.77.65-.83.4-1.2-1.82-.96-5.66.72-11.39,1.65-23.35,2.24-35.41.26-4.47.41-8.97.64-13.46.14-4.5.34-8.99.43-13.49h.1Z"/><path class="cls-1" d="M58.63,356.03l-.31-21.49c-.04-2.61-.19-5.23-.19-7.84l.2-27.66c.04-4.09.02-8.2,0-12.26-.02-2.61,0-5.22.05-7.83l.06-1.96.14-1.96c.11-1.3.18-2.61.34-3.91.31-1.62.34-1.4.75-.02.21.69.42,1.67.66,2.85.12.59.23,1.23.33,1.91.05.34.1.69.15,1.05.02.36.03.73.05,1.1.24,5.31.26,10.62.31,15.94.04,5.32.04,10.65,0,16.01-.09,6.41.31,13.08.45,19.63.12,7.21.23,14.43.35,21.64.08,4.44.15,8.89.23,13.32.13,6.73.19,13.49.36,20.16.13,5.19.45,10.28.62,15.41.04,1.13.1,2.24.12,3.38.02,2.11,0,3.51-.19,4.49-.23.98-.57,1.54-.96,2-.17.21-.32.48-.45.6-.22.2-.43-.13-.77-.89-.35-.77-.67-1.97-.75-3.51-.69-9.16-.92-18.8-1.16-28.5-.16-7.2-.31-14.44-.47-21.66h.09Z"/><path class="cls-1" d="M34.43,226.54c.04-1.54.07-3.09.05-4.64,0-.57-.09-1.12-.1-1.69,0-2,0-4-.07-6-.04-.89-.09-1.78-.12-2.66-.02-.57-.09-1.13-.04-1.71.04-.29.06-.57.15-.86.09-.29.17-.58.21-.86.07-.36.1-.31.26-.02.09.14.18.35.4.59.22.24.43.52.57.84.06.14.14.28.18.42l.09.42.19.84c.12.56.24,1.13.34,1.69.09,1.14.13,2.3.11,3.47-.03,1.4.25,2.83.36,4.25.12,1.56.2,3.13.27,4.71l.1,2.91c.06,1.47,0,2.95.07,4.41.04,1.14.25,2.26.33,3.42.02.25.07.51.07.76-.12.95-.4,1.23-1.2,1.33-.18.02-.36.06-.54.06-.6,0-1.07-.43-1.26-1.08-.49-1.93-.44-3.92-.5-5.97-.05-1.52.02-3.07,0-4.62h.07Z"/><path class="cls-1" d="M36.43,351.45l-.26-24.17c-.03-2.94-.16-5.88-.17-8.82l-.06-31.08c.02-4.6-.08-9.22-.16-13.78-.07-2.93-.1-5.87-.07-8.81.03-1.47,0-2.94.11-4.41.13-1.47.29-2.94.48-4.4.26-1.83.31-1.58.7-.03.19.77.54,1.87.86,3.19.16.66.36,1.38.49,2.14.1.76.18,1.57.22,2.42l.22,4.48.12,2.24.05,2.24c.05,2.99.11,5.98.16,8.97.03,2.99.05,5.99.08,9-.03,3-.07,6.01-.1,9.03-.13,7.22.19,14.72.29,22.1.09,8.11.19,16.23.28,24.35.07,4.99.13,9.99.2,14.98.14,7.56.23,15.16.48,22.66.19,5.83.58,11.55.89,17.31.07,1.27.17,2.51.22,3.79.17,4.75-.06,6.26-.89,7.31-.19.24-.38.55-.57.69-.64.47-1.25-1.44-1.61-4.91-.93-10.29-1.27-21.17-1.56-32.09-.16-8.11-.33-16.26-.49-24.39h.08Z"/><path class="cls-1" d="M56.38,236.52l-.1-5.44c-.02-.66-.12-1.32-.13-1.98-.04-2.35-.07-4.7-.11-7.04,0-1.04-.07-2.09-.14-3.12-.08-1.32-.27-2.66.16-4,.12-.42.33-.36.68-.02.18.17.41.41.65.7.22.29.38.63.45,1,.39,2.65.68,5.3.61,8.02-.03,1.63.28,3.3.42,4.95.15,1.82.28,3.65.38,5.49l.15,3.39c.06,1.72.11,3.45.17,5.16.06,1.33.28,2.65.33,4.01,0,.3.04.6.04.91-.07,1.14-.37,1.49-1.22,1.56-.2.02-.4.05-.59.04-.65-.04-1.12-.56-1.19-1.28-.27-2.18-.35-4.52-.44-6.93-.06-1.78-.11-3.6-.2-5.41h.07Z"/><path class="cls-1" d="M373.39,168.03c-2.2.82-4.46,1.37-6.7,1.78-.82.17-1.62.36-2.45.48-3.09.37-6.41-.09-9.05-1.99-1.13-.84-2.26-2.05-2.49-3.67,0-.5-.08-1.04.08-1.51.06-.24.11-.49.2-.72.1-.22.22-.43.36-.63.56-.78,1.3-1.31,2.03-1.74.46-.27.52-.05.42.47-.05.26-.13.6-.22.96-.07.38-.09.82-.19,1.17-.01.16-.01.32-.04.46-.06.13-.1.26-.09.38,0,.12-.02.24-.04.35.03.11.05.21.06.32.11.41.28.78.64,1.2.65.86,1.93,1.55,3.28,2.01.41.14.84.25,1.29.28.44.07.9.06,1.35.04.91-.03,1.8-.23,2.8-.41,2.14-.37,4.26-.82,6.31-1.5,1.25-.44,2.5-.89,3.68-1.5,1.79-.9,3.51-1.98,5-3.32,1.16-1.04,2.1-2.27,3.03-3.5.21-.27.38-.56.59-.83.78-1,1.24-1.15,2-.91.17.06.36.1.51.17.52.25.57.97.14,1.88-1.43,2.57-3.53,5.02-6.15,6.92-1.93,1.43-4.09,2.55-6.29,3.42l-.03-.07Z"/><path class="cls-1" d="M390.75,173.73c-1.87-.4-3.79-1.25-5.25-2.65-.26-.26-.53-.51-.79-.77-.25-.27-.45-.57-.65-.87-.39-.52-.59-1.11-.84-1.67-.26-.55-.42-1.19-.52-1.8-.21-1.24-.13-2.47.12-3.63.22-1.02.49-2.03.94-2.95.27-.59.55-1.18.97-1.69.41-.51.87-.97,1.39-1.36.33-.24.47-.03.52.42.04.45.09,1.19-.08,1.83-.15.57-.34,1.09-.51,1.61-.17.52-.27,1.05-.44,1.55-.28,1.01-.46,2.03-.45,3.07,0,.63.15,1.23.48,1.81.16.29.3.6.47.87.2.25.39.51.57.78.88,1.09,2.11,1.88,3.57,2.3.44.14.92.21,1.38.32.48.05.96.12,1.45.14,1.48.08,3.02-.03,4.52-.33,1.16-.23,2.26-.71,3.37-1.12.25-.09.48-.21.73-.29.94-.29,1.3-.16,1.71.63.09.18.2.35.28.54.25.63,0,1.26-.67,1.62-1.95,1.07-4.25,1.64-6.67,1.9-1.8.18-3.68.16-5.6-.19v-.07Z"/><path class="cls-1" d="M184.26,270.26c5.84-.16,11.67-.21,17.49-.24,2.13-.01,4.25-.12,6.37-.11,7.49.04,14.97.2,22.44.35,3.32.06,6.65.05,9.94.02,2.11-.02,4.23-.04,6.35-.06,2.12.07,4.24.29,6.34.92,1.31.26,1.14.25.02.56-.56.13-1.36.61-2.31.93-.48.17-1,.4-1.55.55-.55.12-1.14.23-1.75.29-8.62.14-17.23.06-25.93-.25-5.2-.21-10.61.02-15.92.08-5.84.06-11.69.13-17.53.31-3.59.11-7.19.24-10.76.46-2.71.16-5.42.35-8.11.65-1.34.15-2.68.33-3.98.56-.65.12-1.29.26-1.91.42-.31.08-.61.18-.9.27l-.34.14c-.08.04-.17.08-.25.13-.3.12-.36.45-.41.74-.06.35-.14.94-.18,1.42-.1,1.02-.17,2.05-.23,3.08-.12,2.06-.19,4.13-.27,6.2-.04.91-.04,1.81-.1,2.73-.2,3.42-.51,4.5-1.47,5.16-.22.15-.44.35-.65.43-.72.27-1.18-1.16-1.21-3.67-.04-3.73.04-7.56.3-11.48.07-.98.15-1.97.27-2.99l.09-.77.15-.95c.31-.87.52-1.88,1.34-2.41.35-.31.81-.51,1.23-.73l.54-.21.42-.15c.56-.19,1.09-.32,1.62-.45,1.04-.25,2.06-.42,3.07-.58,5.98-.89,11.86-1.18,17.76-1.43v.09Z"/><path class="cls-1" d="M189.46,302.4c15.89,2.03,31.88,3.41,47.9,4,5.85.23,11.7.25,17.54.29l7.73-.05c2.57-.04,5.15.02,7.72-.12,5.14-.24,10.3-.3,15.43-.76l7.7-.58,7.67-.85c2.56-.24,5.1-.65,7.65-1.03,2.54-.4,5.1-.71,7.62-1.24,2.24-.43,4.49-.86,6.73-1.29l6.67-1.58,1.66-.4,1.65-.47,3.29-.93c2.2-.59,4.35-1.32,6.49-2.03,5.53-1.8,10.93-3.99,16.24-6.35,2.67-1.16,5.28-2.44,7.93-3.66l3.97-1.85c1.34-.6,2.73-1.08,4.11-1.6,3.48-1.23,3.03-.98.52.9-2.44,2-6.97,5.61-13.2,8.44-5.45,2.6-11.1,4.81-16.8,6.82-2.87.94-5.73,1.95-8.65,2.73l-4.36,1.24c-1.46.38-2.94.71-4.41,1.07-11.76,2.84-23.77,4.47-35.84,5.49-14.44,1.22-29.5,1.68-44.28,1.56-16.25-.26-32.49-1.24-48.65-2.98-9.95-1.06-19.86-2.41-29.73-4.03-14.94-2.49-29.83-5.72-44.31-9.82-5.63-1.59-11.17-3.31-16.64-5.2-5.47-1.89-10.87-3.98-16.14-6.46-2.31-1.11-4.59-2.18-6.85-3.47-4.2-2.37-6.81-4.25-8.49-5.74-.84-.76-1.46-1.39-1.94-1.96-.45-.61-.75-1.15-.98-1.67-.21-.47-.52-1.04-.58-1.37-.09-.56.69-.31,2.14.58.72.46,1.63,1.04,2.73,1.74,1.06.74,2.37,1.5,3.79,2.42,4.29,2.65,8.88,4.95,13.63,7.05,4.75,2.09,9.65,4.02,14.67,5.75,10.03,3.47,20.44,6.4,30.98,8.86,15.66,3.66,31.63,6.44,47.66,8.47v.09Z"/><path class="cls-1" d="M378.47,277.46c.03,2.43,0,4.85-.03,7.27,0,.88.06,1.76.04,2.64l-.13,4.64c-.07,1.55-.13,3.09-.16,4.63-.05,1.37.07,2.74.06,4.1.02.87.06,1.74.07,2.62-.02.87-.14,1.76-.24,2.64-.08.55-.22.49-.52.05-.28-.44-.85-1.25-1.19-2.25-.77-3.56-.84-7.16-.67-10.76.12-2.16-.04-4.4-.07-6.59-.02-2.42-.03-4.83-.08-7.24-.04-1.48-.08-2.97-.17-4.44-.13-2.24-.29-4.48-.63-6.68-.29-1.7-.79-3.33-1.24-4.96-.1-.36-.17-.72-.25-1.08-.25-1.37-.12-1.85.49-2.32.14-.11.27-.23.41-.31.47-.26,1.05.19,1.55,1.16.8,1.43,1.29,2.99,1.63,4.6.16.8.31,1.62.45,2.44.1.82.2,1.65.31,2.47.25,2.45.37,4.92.45,7.37h-.07Z"/><path class="cls-1" d="M476.13,212.85c1.56-1.12,3.07-2.26,4.44-3.53.51-.46.93-.99,1.4-1.47,1.66-1.7,3.11-3.61,3.97-5.83.38-.98.6-2.03.67-3.05.02-.66.06-1.32.04-1.98-.02-.66-.05-1.31.02-2.03.09-.46.25-.47.74-.21.25.13.55.34.87.64.3.3.5.69.62,1.14.08.4.16.8.2,1.21.02.2.05.41.06.61l-.02.61c-.06.81-.18,1.61-.37,2.39-.39,1.56-1.04,3.03-1.91,4.35-1.04,1.57-2.05,3.2-3.31,4.59-1.38,1.52-2.93,2.83-4.49,4.08-.96.77-1.94,1.5-2.92,2.24-1.49,1.11-3.06,2.13-4.57,3.18-1.17.82-2.23,1.76-3.35,2.63-.24.19-.47.4-.72.58-.97.62-1.41.6-2.07,0-.15-.14-.31-.26-.44-.41-.44-.5-.32-1.22.27-1.86,1.8-1.85,4.03-3.18,6.13-4.62,1.57-1.06,3.15-2.13,4.68-3.31l.05.06Z"/><path class="cls-1" d="M473.9,209.73c1.48-1.1,2.8-2.28,4.06-3.58.46-.47.81-1.03,1.24-1.53,1.5-1.76,2.74-3.74,3.54-5.93.35-.97.49-2,.55-3.01,0-.65-.02-1.3-.09-1.95-.01-.34-.06-.62-.07-.87,0-.27-.03-.45-.05-.64,0-.33-.18-.54.49-.73.65-.2,2.04.7,2.1,1.68.66,3.12.14,6.48-1.39,9.19-.93,1.6-1.74,3.32-2.86,4.81-1.22,1.63-2.65,3.08-4.18,4.38-.93.8-1.9,1.55-2.88,2.28-1.49,1.11-3.09,2.05-4.57,3.06-1.15.78-2.15,1.72-3.16,2.61-.22.19-.42.41-.65.6-.84.71-1.35.6-2.08.04-.17-.13-.35-.25-.49-.39-.48-.45-.49-1.24,0-2,1.65-2.02,3.88-3.59,5.97-4.92,1.55-1.01,3.04-2,4.46-3.17l.06.07Z"/><path class="cls-1" d="M477.39,219.12c1.75-.89,3.42-1.86,4.99-2.95.57-.4,1.06-.89,1.6-1.32,1.9-1.52,3.57-3.32,4.69-5.51.51-.96.78-2.02,1.02-3.06.16-.67.2-1.35.26-2.03.06-.68.22-1.38.25-2.1.05-.45.28-.46.68-.13.39.32,1.09,1.01,1.35,1.96.15.83.15,1.69.09,2.53-.02.85-.23,1.67-.49,2.47-.55,1.58-1.34,3.06-2.38,4.34-1.22,1.53-2.44,3.14-3.89,4.45-1.6,1.44-3.36,2.61-5.15,3.67-1.1.66-2.22,1.26-3.32,1.87-1.67.91-3.36,1.79-4.99,2.75-1.27.75-2.43,1.66-3.67,2.46-.27.18-.52.38-.81.54-1.04.61-1.55.44-2.18-.29-.15-.17-.31-.33-.43-.51-.41-.6-.24-1.37.4-2.01,2.02-1.71,4.27-3.02,6.62-4.37,1.76-.98,3.61-1.88,5.32-2.83l.05.07Z"/><path class="cls-1" d="M49.48,254.46c-2.78-2.33-5.43-4.8-7.97-7.38-.92-.95-1.89-1.85-2.77-2.83-3.07-3.5-5.95-7.22-8.05-11.51-.46-.96-.87-1.96-1.18-3.02-.3-1.06-.41-2.35-.18-3.44.26-1.42.74-2.73,1.42-3.96.32-.62.76-1.19,1.27-1.7.25-.26.53-.49.81-.72.31-.21.64-.39,1-.51.47-.12.7-.08.74.04.05.12-.09.35-.22.73-.26.81-.4,2.04-.98,3.17-.56.99-1.01,2.09-1.25,3.14-.25,1.09-.16,1.8.19,2.93.71,2.15,2.05,4.39,3.44,6.55,1.67,2.61,3.95,4.98,6.16,7.3,2.43,2.56,5.02,4.99,7.71,7.3,1.67,1.41,3.36,2.8,5.12,4.08,2.66,1.96,5.41,3.85,8.29,5.41,2.24,1.22,4.58,2.12,6.93,2.97.52.18,1.03.36,1.55.54.95.37,1.57.63,1.96.96.36.39.53.76.62,1.19.04.2.12.4.13.56.01.28-.21.45-.66.58-.45.12-1.15.27-1.91.05-4.62-1.05-9.1-3.31-13.28-5.92-3.11-1.95-6.07-4.14-8.92-6.44l.04-.06Z"/><path class="cls-1" d="M51.14,263.22c-2.63-1.91-5.08-4.02-7.36-6.26-.84-.81-1.71-1.59-2.51-2.41-1.33-1.41-2.78-2.85-4.17-4.35-1.38-1.51-2.72-3.08-3.95-4.75-1.1-1.47-2.16-3-3.05-4.64l-.42-.79-.35-.84c-.11-.28-.24-.56-.34-.84l-.25-.88c-.07-.3-.18-.58-.22-.89l-.06-.92c-.01-.31-.05-.61,0-.92.04-.31.14-.62.21-.92.25-.75.33-.62.82-.05.24.29.66.66.95,1.09.34.43.76.88.93,1.43.37.96.83,1.88,1.35,2.79.48.93,1.03,1.84,1.64,2.73,1.21,1.79,2.61,3.53,4.07,5.29,1.72,2.1,4.03,3.98,6.04,6.02,2.18,2.19,4.45,4.28,6.9,6.15,1.52,1.12,3.06,2.23,4.71,3.17,2.47,1.45,5.07,2.73,7.78,3.68,2.11.74,4.27,1.17,6.44,1.66.48.11.96.18,1.43.3,1.77.46,2.28.84,2.4,1.83.03.23.09.46.08.68-.02.73-.91,1.09-2.27.92-4.03-.49-8.2-1.67-12.26-3.41-3.01-1.29-5.9-2.95-8.6-4.82l.04-.07Z"/><path class="cls-1" d="M54.16,268.9c-2.59-1.27-5.1-2.73-7.47-4.38-.87-.59-1.78-1.12-2.59-1.8-2.91-2.3-5.59-4.88-7.88-7.75-.54-.61-1.02-1.27-1.52-1.91-.49-.65-1.04-1.25-1.49-1.92-.6-.85-1.16-1.71-1.71-2.59-.52-.9-.91-1.87-1.35-2.8-.26-.59-.11-.58.37-.23.45.36,1.37.95,2.13,1.83.64.81,1.38,1.53,2.02,2.32.6.83,1.31,1.56,1.95,2.35.63.8,1.35,1.52,2.03,2.28.35.37.66.78,1.01,1.14l1.05,1.12c1.65,1.83,3.79,3.27,5.82,4.72,2.3,1.52,4.65,2.99,7.16,4.18,1.51.81,3.1,1.47,4.67,2.14,2.42.95,4.88,1.86,7.4,2.51,1.95.53,3.92.78,5.89,1.11.43.07.87.1,1.3.18.81.13,1.33.3,1.66.55.34.24.51.52.61.92.05.18.12.36.13.53.05.56-.7.9-1.96.92-3.66-.21-7.43-1.07-11.14-2.23-2.77-.82-5.47-1.95-8.13-3.12l.03-.07Z"/><path class="cls-1" d="M244.05,210.26c-.3-2.25-.52-4.52-.54-6.86-.02-1.17.05-2.36.22-3.59.2-1.22.48-2.54,1.46-3.87.71-.9,1.48-1.43,2.24-1.94.77-.5,1.54-.91,2.34-1.25,2.8-1.21,5.67-1.9,8.59-2.38,1.46-.23,2.94-.38,4.44-.41,1.51-.03,3.04.08,4.65.73.68.3,1.53.8,1.91,1.79.37.95.02,2.03-.51,2.65-1.09,1.23-2.37,1.7-3.58,2.19-3.16,1.14-6.38,1.8-9.66,1.79-1.05-.17-.89-.02-.11-.5.39-.25.95-.54,1.62-.92.68-.34,1.48-.66,2.35-.94,1.54-.52,3.11-.87,4.54-1.46.71-.28,1.41-.59,1.98-.94.57-.33,1.02-.8,1-.92,0-.03-.01-.03-.02-.03.01,0-.03,0-.01,0,.07,0,.17-.05.1-.03-.03.01,0,0-.05.03-.12.08-.07.04-.08.05-.03,0-.06-.04-.14-.07-.32-.15-.99-.3-1.67-.35-1.39-.07-2.98-.14-4.55,0-1.89.13-3.83.54-5.7,1.1-1.87.58-3.73,1.27-5.36,2.16-.87.47-1.75,1.08-2.1,1.63-.41.61-.66,1.62-.81,2.61-.26,2.05-.19,4.25,0,6.43.23,2.69.63,5.4,1.12,8.09.75,4.07,1.64,8.15,2.71,12.14.84,3.1,1.85,6.08,2.83,9.1.21.67.45,1.31.65,1.99.76,2.5.81,3.37.29,4.1-.12.17-.23.37-.36.48-.46.36-1.13-.52-1.83-2.31-2.05-5.32-3.84-11.08-5.32-16.96-1.11-4.37-2.04-8.81-2.72-13.34l.07-.02Z"/><path class="cls-1" d="M269.86,229.47c.48-.04.95-.09,1.4-.15.22-.03.44-.06.61-.1l.11-.02s.03,0,.03,0h.01s0,0,0,0l.03.07.07.16c.21.44.37.74.52.89.08.08.13.07.11.07-.02,0-.05.02-.07.05-.04.04-.07.08-.1.13l-.34,1.09-.32-.14-.42-.11c-.41-.08-.85-.05-1.3-.09-1.62-.11-3.36,0-5.05.28-.75.12-1.5.31-2.22.54-.47.14-.91.33-1.37.48-.45.17-.91.31-1.43.33-.32.02-.41-.25-.32-.69.04-.22.13-.5.26-.79.14-.27.36-.47.62-.62,1.91-.95,3.94-1.63,6.1-1.7,1.28-.06,2.58-.35,3.96-.32.76.04,1.51.07,2.39.41l.12.05.09.06c.06.04.11.08.16.12l.07.07s.08.09.12.15c.08.13.13.18.19.4.05.19.04.44,0,.56-.03.14-.13.33-.18.4-.05.07-.1.13-.16.19-.1.09-.15.12-.23.18-.22.13-.34.16-.46.21-.23.07-.43.11-.62.14-.38.07-.74.11-1.1.15-.87.09-1.73.16-2.59.21-1.3.08-2.6.11-3.87.22-.99.1-1.96.32-2.95.45-.22.03-.43.08-.66.09-.83-.02-1.13-.22-1.27-.77-.03-.13-.08-.25-.09-.38-.03-.41.28-.74.83-.94,1.66-.55,3.48-.66,5.29-.93,1.34-.16,2.68-.33,4.02-.49v.06Z"/><path class="cls-1" d="M174.38,340.3c-1.36-.42-2.74-.78-4.08-1.26l-2.02-.68-2-.76c-.98-.35-1.97-.68-2.91-1.11-1.69-.71-3.32-1.57-4.95-2.4-1.59-.92-3.17-1.84-4.68-2.88l-1.03-.65-1-.7c-.66-.47-1.35-.89-1.99-1.38l-2.43-1.94c-.79-.68-1.42-1.53-2.09-2.3-.4-.5-.18-.6.43-.48.31.06.72.17,1.19.33.23.08.48.17.73.28.13.05.25.12.38.17.11.08.23.16.34.24,3.36,2.3,6.7,4.51,10.25,6.58,2.1,1.29,4.51,2.2,6.84,3.14,1.29.51,2.6.98,3.91,1.45,1.33.42,2.64.9,3.99,1.26l2.48.7,2.51.61c1.27.3,2.55.54,3.83.81,1.28.23,2.57.45,3.86.62,2,.23,3.99.29,5.97.41.44.02.87.04,1.31.06,1.63.12,2.14.35,2.44,1.06.07.16.16.32.2.48.12.53-.59.91-1.81.99-1.82.12-3.69.1-5.58,0-1.89-.16-3.79-.41-5.69-.74-1.41-.21-2.82-.54-4.22-.82-1.4-.33-2.8-.66-4.19-1.02v-.07Z"/><ellipse class="cls-1" cx="271.45" cy="417.25" rx="33.21" ry="2.5"/><path class="cls-1" d="M44.96,317.13c-.05,1.63-.09,3.26-.08,4.89,0,.6.09,1.19.09,1.78,0,2.1-.13,4.21-.05,6.32.04.93.11,1.87.16,2.8.1,1.19.23,2.38.15,3.59-.03.38-.32.37-.69.1-.36-.27-.87-.79-1.08-1.46-.35-1.2-.67-2.4-.91-3.62-.1-1.23-.15-2.48-.09-3.73.06-1.5-.19-3.03-.16-4.56,0-1.67.06-3.35.13-5.02l.15-3.08c.07-1.55.2-3.11.25-4.65.03-1.2-.01-2.38.03-3.56,0-.26,0-.52.02-.78.09-.97.26-1.27.77-1.44.12-.04.23-.09.34-.11.38-.06.67.36.76,1.08.14,1.06.25,2.14.32,3.24.08,1.09.03,2.19.03,3.3-.02,1.64-.05,3.28-.07,4.93h-.06Z"/><path class="cls-1" d="M353.34,180.17c-1.39,2.69-1.34,5.99.21,8.6.33.56,1.14.82,1.71.45s.81-1.11.45-1.71c-.16-.27-.31-.55-.43-.84.09.23-.07-.21-.09-.25-.04-.11-.07-.22-.11-.34-.09-.3-.15-.61-.21-.92-.02-.15-.02-.16,0-.02,0-.08-.02-.16-.02-.24-.01-.14-.02-.27-.02-.41-.03-1.11.2-2.16.67-3.07.3-.58.17-1.38-.45-1.71-.57-.3-1.39-.17-1.71.45h0Z"/><path class="cls-1" d="M366.14,184.61c-1.02,2.06-2.5,5.23-.85,7.35.9,1.15,2.52,1.41,3.9,1.36,1.52-.05,2.98-.49,4.34-1.15,1.48-.71,2.85-1.74,3.93-2.98.48-.56.55-1.39,0-1.94-.5-.5-1.46-.56-1.94,0-.38.44-.78.84-1.23,1.21-.07.06-.14.12-.21.17.02-.02.13-.1,0,0-.11.08-.22.16-.33.24-.26.18-.54.36-.81.52-.26.15-.52.29-.79.42-.12.06-.25.12-.38.17.18-.08-.18.07-.24.09-.57.21-1.15.36-1.74.46-.26.05.12,0-.15.02-.15.01-.3.02-.45.03-.27,0-.54,0-.82-.02-.06,0-.27-.04,0,0-.06,0-.12-.02-.18-.03-.12-.02-.24-.05-.36-.08-.05-.01-.37-.11-.2-.05.16.06-.16-.1-.22-.13-.13-.07.1.08.1.08-.03-.02-.07-.06-.09-.09-.09-.12.08.12.08.11-.03-.05-.07-.1-.09-.14-.1-.18-.02-.15,0,.01,0-.08-.05-.23-.08-.3-.06-.12.01.11.01.14,0-.06-.01-.13-.02-.19,0-.1,0-.2,0-.3s.01-.21.02-.31c0-.08.05-.25,0,.05.02-.07.02-.15.04-.22.11-.56.28-1.1.48-1.64.06-.15.12-.3.18-.45s-.01.03-.02.05c.03-.07.06-.15.1-.22.13-.28.26-.57.4-.84.33-.67.18-1.49-.49-1.88-.61-.36-1.55-.17-1.88.49h0Z"/><path class="cls-1" d="M353.56,205.51c.65.86,1.4,1.51,2.42,1.88.8.29,1.7.28,2.53.09,1.63-.36,3-1.49,3.96-2.81.42-.58.12-1.56-.49-1.88-.71-.38-1.43-.13-1.88.49-.1.14-.19.13.03-.03-.05.04-.09.11-.13.15-.1.11-.2.22-.3.32s-.22.21-.33.3c-.04.04-.13.08-.16.13.16-.12.2-.15.12-.09-.03.02-.07.05-.1.07-.23.17-.48.32-.73.44-.06.03-.12.06-.18.09-.26.13.31-.11.03-.02-.14.05-.27.09-.41.13-.06.02-.13.03-.19.05-.13.03-.32,0,.06,0-.13,0-.26.02-.38.03-.08,0-.15,0-.23,0-.06,0-.29-.03-.05,0s.01,0-.05-.02c-.08-.02-.15-.04-.23-.06-.06-.02-.12-.05-.19-.06-.16-.05.28.14.07.03-.15-.08-.29-.17-.43-.26-.2-.13.15.14.03.02-.05-.05-.12-.1-.17-.15-.07-.07-.14-.14-.2-.21-.05-.06-.24-.3-.04-.04-.23-.3-.45-.53-.82-.63-.33-.09-.77-.05-1.06.14-.56.36-.96,1.27-.49,1.88h0Z"/><path class="cls-1" d="M361.6,174.85c.06-.03.12-.07.19-.1.03-.02.06-.03.1-.05.12-.06-.15.06-.14.06.16-.05.31-.11.47-.16.14-.04.28-.05.42-.09.01,0-.29.03-.16.02.04,0,.07,0,.11-.01.08,0,.17-.01.25-.01.15,0,.31,0,.46.01.04,0,.07,0,.11,0,.14,0-.17-.03-.16-.02.08.02.16.03.25.04.14.03.28.06.41.11.08.02.16.05.23.08.19.06-.25-.12,0,0,.13.06.25.13.37.2.06.04.12.07.18.11.03.02.06.04.09.06.14.1-.06-.03-.08-.07.04.06.13.11.18.16,0,0,.06.05.06.06,0,.04-.15-.26-.1-.13.02.04.13.26.03.04-.08-.18-.04-.08-.02-.04.05.16-.02-.15-.02-.17,0-.12.03-.23.08-.34.07-.15.25-.37.39-.45-.04.02.57-.14.37-.12-.15.01.13.01.12.02-.07.03-.23-.04-.3-.05-.1-.02-.2-.04-.3-.06-.36-.07-.72-.16-1.07-.26-.41-.12-.81-.26-1.21-.41-.04-.02-.08-.03-.12-.05-.16-.06.21.09.06.02-.11-.05-.21-.09-.32-.14-.2-.09-.4-.19-.59-.29-.58-.3-1.38-.17-1.71.45-.3.57-.17,1.39.45,1.71.9.47,1.85.86,2.83,1.14.45.13.91.23,1.37.32.29.05.6.12.89.11.53-.01,1.05-.28,1.33-.74.36-.59.28-1.29-.04-1.88-.25-.46-.69-.8-1.12-1.09-.78-.52-1.7-.78-2.62-.85-1.02-.08-2.07.17-2.95.67-.57.32-.81,1.15-.45,1.71s1.1.79,1.71.45h0Z"/><path class="cls-1" d="M380.81,176.87c-.9-.58-1.91-1.03-2.94-1.33-.57-.16-1.15-.26-1.73-.33-.46-.06-.94-.07-1.39.1-.73.27-1.27.9-1.26,1.7.01.71.49,1.34,1.11,1.66,1.06.54,2.29.49,3.44.46.15,0,.3,0,.46,0,.06,0,.11,0,.17,0,0,0,.33.04.17.01-.14-.03.04.01.06.02.07.02.14.03.21.06.02,0,.1.05.12.04-.15-.07-.18-.08-.1-.04.03.01.05.03.08.04.04.02.08.04.11.07.04.03.2.18.09.05s-.02-.01,0,.01c.03.03.22.17.07.06-.1-.08-.03-.05,0,0,.01.02.14.26.05.07-.09-.2,0,0,0,0,.02.11.02.11,0,0-.01-.11-.02-.11-.01,0,.01.65.57,1.28,1.25,1.25s1.26-.55,1.25-1.25c-.02-1.06-.68-2.01-1.63-2.47s-2.03-.43-3.1-.41c-.23,0-.45,0-.68-.01-.09,0-.33-.05-.11,0-.13-.02-.25-.04-.38-.07-.12-.03-.23-.06-.34-.09-.03,0-.17-.06,0,0,.21.08,0,0,0,0-.03,0-.15-.12,0,0,.14.12.03.02,0,0,.14.17.21.37.18.59-.02.15-.13.37-.23.48,0,0-.24.15-.12.09s-.14.05-.14.05c.02,0,.08-.03.11-.03.14.02-.17,0-.15.01.02.01.09,0,.12,0,.09,0,.17,0,.26,0,.05,0,.11.01.16.02.19.01-.21-.03-.02,0,.1.02.21.03.31.05.23.04.45.09.67.15.24.06.48.13.71.21.12.04.23.08.35.13.08.03.36.16.14.05.48.23.95.47,1.4.75.55.36,1.4.13,1.71-.45.33-.62.14-1.33-.45-1.71h0Z"/><path class="cls-1" d="M357.13,188.81c-.69.55-1.36,1.13-1.87,1.75-.21.23-.27.49-.44.7-.23.37-.45.73-.47.98-.07.29-.02.55.24.81.21.28.63.46,1.09.56.59.07,1.22.28,1.92.58.22.11.18.36-.02.7-.19.32-.54.82-.99.98-.2.07-.4.12-.61.18-.21.05-.42.03-.64.03-.44-.02-.9-.08-1.4-.25-.48-.17-1.05-.41-1.45-.95-.41-.49-.7-1.14-.75-1.74-.15-1.5.28-2.68.83-3.54.64-.94,1.39-1.67,2.15-2.33.47-.41.95-.79,1.43-1.17.72-.58,1.48-1.09,2.16-1.68.53-.46.96-1.02,1.43-1.52.1-.11.21-.21.33-.3.46-.32.73-.23,1.2.15.11.09.22.17.31.25.3.28.4.77.2,1.21-.16.3-.28.66-.49.89-.2.25-.41.49-.63.71-.44.45-.92.86-1.39,1.26-.7.6-1.44,1.15-2.09,1.76l-.05-.05Z"/><path class="cls-1" d="M329.43,104.88c-.27-.1-.13-.43.24-.9.12-.15.58-.46.69-.46.2.01.39.03.56.07.09.03,1.04.85,1.4,1.09.34.24.61.53.87.83.53.61,1.1,1.18,1.67,1.75.13.13.23.27.32.44.3.56.74,1,1.23,1.38.08.06.15.15.29.14.22,0,1.49,1.07,1.61,1.26.29.49.67.88.98,1.36.05.07.13.09.12.23-.03.31.13.38.25.5.17.17.33.34.47.55.07.1.08.29.11.45.03.15-.23.42-.28.43-.16.03-.18.23-.26.36-.03.05-.06.1-.09.14-.05.07-1.62-.17-1.76-.26,0,0-.13-.07-.31-.17-.18-.1-.42-.23-.66-.39-.46-.3-.95-.62-1.06-.69-.11-.06-.17-.19-.24-.3-.04-.04-1.43-1.01-1.47-1.07-.23-.26-.55-.44-.64-.84-.02-.08-.08-.12-.13-.17-.45-.4-.8-.89-1.15-1.37-.19-.24-.41-.45-.61-.68-.04-.04-.05-.11-.07-.16-.03-.06-.05-.14-.1-.19-.49-.53-.85-1.16-1.37-1.67-.12-.11-.38-.91-.52-1.04-.08-.07.03-.58-.08-.62Z"/><path class="cls-1" d="M347.32,113.1c.18.22-.21.38-.92.49-.23.04-.9,0-1-.07-.18-.13-.37-.26-.5-.39-.07-.08-.43-1.26-.59-1.67-.16-.39-.2-.78-.21-1.16-.04-.78-.12-1.57-.07-2.34,0-.17.05-.34.13-.51.29-.58.33-1.17.28-1.77,0-.1.02-.2-.11-.3-.21-.17-.14-1.78-.03-1.98.26-.5.54-1.01.78-1.51.04-.07,0-.15.15-.21.36-.14.32-.3.36-.46.06-.22.16-.44.32-.65.13-.1.35-.2.51-.3.15-.09.48-.02.53.02.12.11.31.04.46.03.05,0,.12,0,.16,0,.03,0,.12.09.27.22.19.13.29.3.43.48.28.35.47.72.48.79,0,.02.09.49.17,1,.11.5.15,1.03.18,1.13.03.11-.06.22-.12.33-.03.05.19,1.56.18,1.61-.06.31.06.62-.28.91-.07.06-.05.12-.05.18.02.53-.13,1.06-.24,1.58-.06.27-.01.54-.06.81,0,.05-.06.09-.09.14-.03.06-.09.12-.09.18-.04.64-.29,1.27-.23,1.92,0,.15-.42.83-.39,1,.01.1-.5.38-.43.47Z"/><path class="cls-1" d="M323.07,119.43c-.2.15-.35-.16-.48-.73-.04-.18-.02-.73.04-.81.11-.15.23-.3.34-.4.07-.06,1.15-.36,1.52-.49.36-.13.71-.16,1.06-.18.72-.05,1.44-.07,2.15-.07.16,0,.32.03.48.09.54.21,1.09.23,1.63.18.09,0,.18.01.27-.09.15-.17,1.63-.15,1.82-.07.47.22.94.38,1.42.56.07.03.14,0,.2.11.14.28.28.24.43.27.2.04.41.09.61.19.1.05.2.21.29.33.09.11.03.51,0,.56-.1.12-.03.32-.02.48,0,.06,0,.13,0,.18-.01.1-1.21.8-1.33.8-.03,0-1.72.25-1.95.29-.1.03-.2-.04-.3-.09-.05-.02-1.43.17-1.48.16-.28-.04-.57.06-.85-.2-.05-.05-.11-.04-.17-.04-.49.03-.98-.09-1.46-.16-.25-.04-.5-.01-.75-.02-.04,0-.09-.04-.13-.06-.06-.02-.11-.06-.17-.06-.59-.02-1.18-.19-1.77-.13-.14.01-.78-.31-.94-.28-.09.01-.37-.39-.44-.33Z"/></svg>